<svg width="21" height="22" viewBox="0 0 21 22" fill="none" xmlns="http://www.w3.org/2000/svg">
<path fill-rule="evenodd" clip-rule="evenodd" d="M20.9343 9.49515C20.9011 9.19868 20.5569 8.9759 20.2593 8.9759C19.297 8.9759 18.4431 8.40846 18.085 7.53091C17.7192 6.63209 17.9551 5.58386 18.6722 4.9232C18.898 4.71595 18.9254 4.36903 18.7361 4.12804C18.2436 3.49995 17.6838 2.93259 17.0726 2.44088C16.8333 2.248 16.4821 2.27484 16.2746 2.50562C15.6487 3.20175 14.5245 3.46047 13.6557 3.09644C12.7517 2.71452 12.1816 1.79451 12.2374 0.806935C12.2558 0.496734 12.03 0.227025 11.7221 0.191006C10.9377 0.0998995 10.1465 0.0970745 9.35983 0.184728C9.05541 0.218471 8.82967 0.481824 8.83991 0.788101C8.87413 1.76594 8.29717 2.66987 7.40211 3.03806C6.54377 3.39016 5.42742 3.13364 4.80279 2.44371C4.59636 2.21645 4.25091 2.18852 4.01041 2.37677C3.38109 2.87264 2.80873 3.44046 2.3117 4.06338C2.11785 4.30554 2.14637 4.65655 2.37437 4.86489C3.10519 5.52955 3.34116 6.58689 2.96149 7.49607C2.59901 8.36287 1.70278 8.92152 0.676762 8.92152C0.34382 8.91077 0.106674 9.1352 0.0702617 9.4392C-0.0220964 10.2315 -0.0231904 11.0387 0.0657297 11.8374C0.0987036 12.1351 0.453368 12.3559 0.754274 12.3559C1.66864 12.3325 2.54651 12.901 2.91477 13.801C3.28186 14.6998 3.04588 15.7474 2.32764 16.4086C2.103 16.6159 2.07448 16.9623 2.26381 17.2032C2.75169 17.8273 3.31155 18.3952 3.92492 18.891C4.16551 19.0857 4.51556 19.0582 4.72411 18.8275C5.35233 18.1296 6.47649 17.8714 7.34178 18.2361C8.2481 18.6168 8.81819 19.5368 8.7624 20.5249C8.74419 20.8353 8.97102 21.1054 9.27771 21.1409C9.67894 21.1879 10.0826 21.2114 10.4874 21.2114C10.8716 21.2114 11.2558 21.1902 11.64 21.1473C11.9445 21.1135 12.1701 20.8502 12.1599 20.5433C12.1246 19.566 12.7026 18.6621 13.5965 18.2946C14.4606 17.9401 15.5723 18.1995 16.197 18.8887C16.4046 19.1155 16.7476 19.1429 16.9895 18.9553C17.6176 18.4606 18.1888 17.8932 18.6882 17.2686C18.8819 17.027 18.8546 16.6754 18.6254 16.4672C17.8946 15.8025 17.6575 14.745 18.0371 13.8365C18.3941 12.9812 19.257 12.4069 20.1852 12.4069L20.3151 12.4103C20.6161 12.4349 20.8931 12.202 20.9296 11.8933C21.0221 11.1004 21.0232 10.2938 20.9343 9.49515ZM10.5167 14.2058C8.58526 14.2058 7.01423 12.6281 7.01423 10.6884C7.01423 8.7488 8.58526 7.17096 10.5167 7.17096C12.448 7.17096 14.019 8.7488 14.019 10.6884C14.019 12.6281 12.448 14.2058 10.5167 14.2058Z" fill="#255390"/>
</svg>
