<svg width="22" height="22" viewBox="0 0 22 22" fill="none" xmlns="http://www.w3.org/2000/svg">
<path d="M18.8136 3.20326C16.8751 1.25644 14.2905 0.120789 11.3828 0.120789C8.47512 0.120789 5.8905 1.33755 3.95204 3.20326C2.01358 5.15008 0.882812 7.74585 0.882812 10.6661C0.882812 13.5863 2.09435 16.1821 3.95204 18.1289C5.8905 20.0757 8.47512 21.2114 11.3828 21.2114C14.2905 21.2114 16.8751 19.9946 18.8136 18.1289C20.752 16.1821 21.8828 13.5863 21.8828 10.6661C21.8828 7.74585 20.6713 5.15008 18.8136 3.20326ZM16.552 15.8576C15.179 17.2366 13.3213 17.9667 11.3828 17.9667C9.44435 17.9667 7.58666 17.2366 6.21358 15.8576C4.8405 14.4786 4.11358 12.6129 4.11358 10.6661C4.11358 8.71926 4.8405 6.85355 6.21358 5.47455C7.58666 4.09555 9.44435 3.36549 11.3828 3.36549C13.3213 3.36549 15.179 4.09555 16.552 5.47455C17.9251 6.85355 18.652 8.71926 18.652 10.6661C18.652 12.6129 17.9251 14.4786 16.552 15.8576Z" fill="#24528F"/>
<path d="M12.1903 4.98792H10.5749C10.0903 4.98792 9.76721 5.31239 9.76721 5.79909V7.42144C9.76721 7.90815 10.0903 8.23262 10.5749 8.23262H12.1903C12.6749 8.23262 12.998 7.90815 12.998 7.42144V5.79909C12.998 5.31239 12.6749 4.98792 12.1903 4.98792Z" fill="#24528F"/>
<path d="M12.1903 9.8551H10.5749C10.0903 9.8551 9.76721 10.1796 9.76721 10.6663V15.5333C9.76721 16.02 10.0903 16.3445 10.5749 16.3445H12.1903C12.6749 16.3445 12.998 16.02 12.998 15.5333V10.6663C12.998 10.1796 12.6749 9.8551 12.1903 9.8551Z" fill="#24528F"/>
</svg>
