<svg width="104" height="12" viewBox="0 0 104 12" fill="none" xmlns="http://www.w3.org/2000/svg">
<path d="M7.38281 5.23111V6.95377C7.38281 7.70116 7.30306 8.34602 7.14355 8.88834C6.98405 9.4261 6.75391 9.86815 6.45312 10.2145C6.1569 10.5563 5.80371 10.8092 5.39355 10.9733C4.9834 11.1374 4.52767 11.2194 4.02637 11.2194C3.62533 11.2194 3.25163 11.1693 2.90527 11.069C2.55892 10.9642 2.24674 10.8024 1.96875 10.5836C1.69531 10.3649 1.45833 10.0892 1.25781 9.7565C1.06185 9.41926 0.911458 9.01822 0.806641 8.55338C0.701823 8.08853 0.649414 7.55533 0.649414 6.95377V5.23111C0.649414 4.48371 0.729167 3.84341 0.888672 3.31021C1.05273 2.77245 1.28288 2.33267 1.5791 1.99088C1.87988 1.64908 2.23535 1.39843 2.64551 1.23892C3.05566 1.07486 3.51139 0.992828 4.0127 0.992828C4.41374 0.992828 4.78516 1.04524 5.12695 1.15005C5.47331 1.25032 5.78548 1.40754 6.06348 1.62173C6.34147 1.83593 6.57845 2.11164 6.77441 2.44888C6.97038 2.78157 7.12077 3.18033 7.22559 3.64517C7.3304 4.10546 7.38281 4.6341 7.38281 5.23111ZM5.40723 7.21353V4.96451C5.40723 4.60448 5.38672 4.29003 5.3457 4.02115C5.30924 3.75227 5.25228 3.5244 5.1748 3.33755C5.09733 3.14615 5.00163 2.9912 4.8877 2.87271C4.77376 2.75422 4.64388 2.66763 4.49805 2.61295C4.35221 2.55826 4.19043 2.53091 4.0127 2.53091C3.78939 2.53091 3.59115 2.57421 3.41797 2.6608C3.24935 2.74739 3.10579 2.88638 2.9873 3.07779C2.86882 3.26464 2.77767 3.51529 2.71387 3.82974C2.65462 4.13964 2.625 4.51789 2.625 4.96451V7.21353C2.625 7.57356 2.64323 7.89029 2.67969 8.16373C2.7207 8.43716 2.77995 8.67186 2.85742 8.86783C2.93945 9.05923 3.03516 9.21646 3.14453 9.33951C3.25846 9.458 3.38835 9.54459 3.53418 9.59927C3.68457 9.65396 3.84863 9.6813 4.02637 9.6813C4.24512 9.6813 4.4388 9.63801 4.60742 9.55142C4.7806 9.46028 4.92643 9.319 5.04492 9.12759C5.16797 8.93163 5.25911 8.67642 5.31836 8.36197C5.3776 8.04752 5.40723 7.6647 5.40723 7.21353ZM8.90039 10.1325C8.90039 9.84081 9.00065 9.597 9.20117 9.40103C9.40625 9.20507 9.67741 9.10709 10.0146 9.10709C10.3519 9.10709 10.6208 9.20507 10.8213 9.40103C11.0264 9.597 11.1289 9.84081 11.1289 10.1325C11.1289 10.4241 11.0264 10.668 10.8213 10.8639C10.6208 11.0599 10.3519 11.1579 10.0146 11.1579C9.67741 11.1579 9.40625 11.0599 9.20117 10.8639C9.00065 10.668 8.90039 10.4241 8.90039 10.1325ZM17.582 1.10904V11.0827H15.6133V3.37857L13.248 4.13052V2.57877L17.3701 1.10904H17.582ZM22.6748 6.55045L21.1025 6.17447L21.6699 1.12955H27.2617V2.72232H23.29L23.0439 4.93033C23.1761 4.85285 23.3766 4.77082 23.6455 4.68423C23.9144 4.59309 24.2152 4.54752 24.5479 4.54752C25.0309 4.54752 25.4593 4.62271 25.833 4.7731C26.2067 4.92349 26.5234 5.14224 26.7832 5.42935C27.0475 5.71646 27.248 6.06737 27.3848 6.48209C27.5215 6.8968 27.5898 7.3662 27.5898 7.89029C27.5898 8.33235 27.5215 8.7539 27.3848 9.15494C27.248 9.55142 27.0407 9.90689 26.7627 10.2213C26.4847 10.5312 26.1361 10.7751 25.7168 10.9528C25.2975 11.1305 24.8008 11.2194 24.2266 11.2194C23.7982 11.2194 23.3835 11.1556 22.9824 11.028C22.5859 10.9004 22.2282 10.7113 21.9092 10.4606C21.5947 10.21 21.3418 9.90689 21.1504 9.55142C20.9635 9.1914 20.8656 8.78124 20.8564 8.32095H22.8115C22.8389 8.60351 22.9118 8.84732 23.0303 9.0524C23.1533 9.25292 23.3151 9.40787 23.5156 9.51724C23.7161 9.62662 23.9508 9.6813 24.2197 9.6813C24.4704 9.6813 24.6846 9.63345 24.8623 9.53775C25.04 9.44205 25.1836 9.30989 25.293 9.14127C25.4023 8.96809 25.4821 8.76757 25.5322 8.5397C25.5869 8.30728 25.6143 8.05663 25.6143 7.78775C25.6143 7.51887 25.5824 7.27505 25.5186 7.0563C25.4548 6.83755 25.3568 6.64843 25.2246 6.48892C25.0924 6.32942 24.9238 6.20637 24.7188 6.11978C24.5182 6.03319 24.2835 5.9899 24.0146 5.9899C23.6501 5.9899 23.3675 6.04686 23.167 6.1608C22.971 6.27473 22.807 6.40461 22.6748 6.55045ZM35.5605 5.23111V6.95377C35.5605 7.70116 35.4808 8.34602 35.3213 8.88834C35.1618 9.4261 34.9316 9.86815 34.6309 10.2145C34.3346 10.5563 33.9814 10.8092 33.5713 10.9733C33.1611 11.1374 32.7054 11.2194 32.2041 11.2194C31.8031 11.2194 31.4294 11.1693 31.083 11.069C30.7367 10.9642 30.4245 10.8024 30.1465 10.5836C29.873 10.3649 29.6361 10.0892 29.4355 9.7565C29.2396 9.41926 29.0892 9.01822 28.9844 8.55338C28.8796 8.08853 28.8271 7.55533 28.8271 6.95377V5.23111C28.8271 4.48371 28.9069 3.84341 29.0664 3.31021C29.2305 2.77245 29.4606 2.33267 29.7568 1.99088C30.0576 1.64908 30.4131 1.39843 30.8232 1.23892C31.2334 1.07486 31.6891 0.992828 32.1904 0.992828C32.5915 0.992828 32.9629 1.04524 33.3047 1.15005C33.651 1.25032 33.9632 1.40754 34.2412 1.62173C34.5192 1.83593 34.7562 2.11164 34.9521 2.44888C35.1481 2.78157 35.2985 3.18033 35.4033 3.64517C35.5081 4.10546 35.5605 4.6341 35.5605 5.23111ZM33.585 7.21353V4.96451C33.585 4.60448 33.5645 4.29003 33.5234 4.02115C33.487 3.75227 33.43 3.5244 33.3525 3.33755C33.2751 3.14615 33.1794 2.9912 33.0654 2.87271C32.9515 2.75422 32.8216 2.66763 32.6758 2.61295C32.5299 2.55826 32.3682 2.53091 32.1904 2.53091C31.9671 2.53091 31.7689 2.57421 31.5957 2.6608C31.4271 2.74739 31.2835 2.88638 31.165 3.07779C31.0465 3.26464 30.9554 3.51529 30.8916 3.82974C30.8324 4.13964 30.8027 4.51789 30.8027 4.96451V7.21353C30.8027 7.57356 30.821 7.89029 30.8574 8.16373C30.8984 8.43716 30.9577 8.67186 31.0352 8.86783C31.1172 9.05923 31.2129 9.21646 31.3223 9.33951C31.4362 9.458 31.5661 9.54459 31.7119 9.59927C31.8623 9.65396 32.0264 9.6813 32.2041 9.6813C32.4229 9.6813 32.6165 9.63801 32.7852 9.55142C32.9583 9.46028 33.1042 9.319 33.2227 9.12759C33.3457 8.93163 33.4368 8.67642 33.4961 8.36197C33.5553 8.04752 33.585 7.6647 33.585 7.21353ZM43.5996 5.23111V6.95377C43.5996 7.70116 43.5199 8.34602 43.3604 8.88834C43.2008 9.4261 42.9707 9.86815 42.6699 10.2145C42.3737 10.5563 42.0205 10.8092 41.6104 10.9733C41.2002 11.1374 40.7445 11.2194 40.2432 11.2194C39.8421 11.2194 39.4684 11.1693 39.1221 11.069C38.7757 10.9642 38.4635 10.8024 38.1855 10.5836C37.9121 10.3649 37.6751 10.0892 37.4746 9.7565C37.2786 9.41926 37.1283 9.01822 37.0234 8.55338C36.9186 8.08853 36.8662 7.55533 36.8662 6.95377V5.23111C36.8662 4.48371 36.946 3.84341 37.1055 3.31021C37.2695 2.77245 37.4997 2.33267 37.7959 1.99088C38.0967 1.64908 38.4521 1.39843 38.8623 1.23892C39.2725 1.07486 39.7282 0.992828 40.2295 0.992828C40.6305 0.992828 41.002 1.04524 41.3438 1.15005C41.6901 1.25032 42.0023 1.40754 42.2803 1.62173C42.5583 1.83593 42.7952 2.11164 42.9912 2.44888C43.1872 2.78157 43.3376 3.18033 43.4424 3.64517C43.5472 4.10546 43.5996 4.6341 43.5996 5.23111ZM41.624 7.21353V4.96451C41.624 4.60448 41.6035 4.29003 41.5625 4.02115C41.526 3.75227 41.4691 3.5244 41.3916 3.33755C41.3141 3.14615 41.2184 2.9912 41.1045 2.87271C40.9906 2.75422 40.8607 2.66763 40.7148 2.61295C40.569 2.55826 40.4072 2.53091 40.2295 2.53091C40.0062 2.53091 39.8079 2.57421 39.6348 2.6608C39.4661 2.74739 39.3226 2.88638 39.2041 3.07779C39.0856 3.26464 38.9945 3.51529 38.9307 3.82974C38.8714 4.13964 38.8418 4.51789 38.8418 4.96451V7.21353C38.8418 7.57356 38.86 7.89029 38.8965 8.16373C38.9375 8.43716 38.9967 8.67186 39.0742 8.86783C39.1562 9.05923 39.252 9.21646 39.3613 9.33951C39.4753 9.458 39.6051 9.54459 39.751 9.59927C39.9014 9.65396 40.0654 9.6813 40.2432 9.6813C40.4619 9.6813 40.6556 9.63801 40.8242 9.55142C40.9974 9.46028 41.1432 9.319 41.2617 9.12759C41.3848 8.93163 41.4759 8.67642 41.5352 8.36197C41.5944 8.04752 41.624 7.6647 41.624 7.21353ZM51.6387 5.23111V6.95377C51.6387 7.70116 51.5589 8.34602 51.3994 8.88834C51.2399 9.4261 51.0098 9.86815 50.709 10.2145C50.4128 10.5563 50.0596 10.8092 49.6494 10.9733C49.2393 11.1374 48.7835 11.2194 48.2822 11.2194C47.8812 11.2194 47.5075 11.1693 47.1611 11.069C46.8148 10.9642 46.5026 10.8024 46.2246 10.5836C45.9512 10.3649 45.7142 10.0892 45.5137 9.7565C45.3177 9.41926 45.1673 9.01822 45.0625 8.55338C44.9577 8.08853 44.9053 7.55533 44.9053 6.95377V5.23111C44.9053 4.48371 44.985 3.84341 45.1445 3.31021C45.3086 2.77245 45.5387 2.33267 45.835 1.99088C46.1357 1.64908 46.4912 1.39843 46.9014 1.23892C47.3115 1.07486 47.7673 0.992828 48.2686 0.992828C48.6696 0.992828 49.041 1.04524 49.3828 1.15005C49.7292 1.25032 50.0413 1.40754 50.3193 1.62173C50.5973 1.83593 50.8343 2.11164 51.0303 2.44888C51.2262 2.78157 51.3766 3.18033 51.4814 3.64517C51.5863 4.10546 51.6387 4.6341 51.6387 5.23111ZM49.6631 7.21353V4.96451C49.6631 4.60448 49.6426 4.29003 49.6016 4.02115C49.5651 3.75227 49.5081 3.5244 49.4307 3.33755C49.3532 3.14615 49.2575 2.9912 49.1436 2.87271C49.0296 2.75422 48.8997 2.66763 48.7539 2.61295C48.6081 2.55826 48.4463 2.53091 48.2686 2.53091C48.0452 2.53091 47.847 2.57421 47.6738 2.6608C47.5052 2.74739 47.3617 2.88638 47.2432 3.07779C47.1247 3.26464 47.0335 3.51529 46.9697 3.82974C46.9105 4.13964 46.8809 4.51789 46.8809 4.96451V7.21353C46.8809 7.57356 46.8991 7.89029 46.9355 8.16373C46.9766 8.43716 47.0358 8.67186 47.1133 8.86783C47.1953 9.05923 47.291 9.21646 47.4004 9.33951C47.5143 9.458 47.6442 9.54459 47.79 9.59927C47.9404 9.65396 48.1045 9.6813 48.2822 9.6813C48.501 9.6813 48.6947 9.63801 48.8633 9.55142C49.0365 9.46028 49.1823 9.319 49.3008 9.12759C49.4238 8.93163 49.515 8.67642 49.5742 8.36197C49.6335 8.04752 49.6631 7.6647 49.6631 7.21353ZM59.6777 5.23111V6.95377C59.6777 7.70116 59.598 8.34602 59.4385 8.88834C59.279 9.4261 59.0488 9.86815 58.748 10.2145C58.4518 10.5563 58.0986 10.8092 57.6885 10.9733C57.2783 11.1374 56.8226 11.2194 56.3213 11.2194C55.9202 11.2194 55.5465 11.1693 55.2002 11.069C54.8538 10.9642 54.5417 10.8024 54.2637 10.5836C53.9902 10.3649 53.7533 10.0892 53.5527 9.7565C53.3568 9.41926 53.2064 9.01822 53.1016 8.55338C52.9967 8.08853 52.9443 7.55533 52.9443 6.95377V5.23111C52.9443 4.48371 53.0241 3.84341 53.1836 3.31021C53.3477 2.77245 53.5778 2.33267 53.874 1.99088C54.1748 1.64908 54.5303 1.39843 54.9404 1.23892C55.3506 1.07486 55.8063 0.992828 56.3076 0.992828C56.7087 0.992828 57.0801 1.04524 57.4219 1.15005C57.7682 1.25032 58.0804 1.40754 58.3584 1.62173C58.6364 1.83593 58.8734 2.11164 59.0693 2.44888C59.2653 2.78157 59.4157 3.18033 59.5205 3.64517C59.6253 4.10546 59.6777 4.6341 59.6777 5.23111ZM57.7021 7.21353V4.96451C57.7021 4.60448 57.6816 4.29003 57.6406 4.02115C57.6042 3.75227 57.5472 3.5244 57.4697 3.33755C57.3923 3.14615 57.2965 2.9912 57.1826 2.87271C57.0687 2.75422 56.9388 2.66763 56.793 2.61295C56.6471 2.55826 56.4854 2.53091 56.3076 2.53091C56.0843 2.53091 55.8861 2.57421 55.7129 2.6608C55.5443 2.74739 55.4007 2.88638 55.2822 3.07779C55.1637 3.26464 55.0726 3.51529 55.0088 3.82974C54.9495 4.13964 54.9199 4.51789 54.9199 4.96451V7.21353C54.9199 7.57356 54.9382 7.89029 54.9746 8.16373C55.0156 8.43716 55.0749 8.67186 55.1523 8.86783C55.2344 9.05923 55.3301 9.21646 55.4395 9.33951C55.5534 9.458 55.6833 9.54459 55.8291 9.59927C55.9795 9.65396 56.1436 9.6813 56.3213 9.6813C56.54 9.6813 56.7337 9.63801 56.9023 9.55142C57.0755 9.46028 57.2214 9.319 57.3398 9.12759C57.4629 8.93163 57.554 8.67642 57.6133 8.36197C57.6725 8.04752 57.7021 7.6647 57.7021 7.21353ZM67.7168 5.23111V6.95377C67.7168 7.70116 67.637 8.34602 67.4775 8.88834C67.318 9.4261 67.0879 9.86815 66.7871 10.2145C66.4909 10.5563 66.1377 10.8092 65.7275 10.9733C65.3174 11.1374 64.8617 11.2194 64.3604 11.2194C63.9593 11.2194 63.5856 11.1693 63.2393 11.069C62.8929 10.9642 62.5807 10.8024 62.3027 10.5836C62.0293 10.3649 61.7923 10.0892 61.5918 9.7565C61.3958 9.41926 61.2454 9.01822 61.1406 8.55338C61.0358 8.08853 60.9834 7.55533 60.9834 6.95377V5.23111C60.9834 4.48371 61.0632 3.84341 61.2227 3.31021C61.3867 2.77245 61.6169 2.33267 61.9131 1.99088C62.2139 1.64908 62.5693 1.39843 62.9795 1.23892C63.3896 1.07486 63.8454 0.992828 64.3467 0.992828C64.7477 0.992828 65.1191 1.04524 65.4609 1.15005C65.8073 1.25032 66.1195 1.40754 66.3975 1.62173C66.6755 1.83593 66.9124 2.11164 67.1084 2.44888C67.3044 2.78157 67.4548 3.18033 67.5596 3.64517C67.6644 4.10546 67.7168 4.6341 67.7168 5.23111ZM65.7412 7.21353V4.96451C65.7412 4.60448 65.7207 4.29003 65.6797 4.02115C65.6432 3.75227 65.5863 3.5244 65.5088 3.33755C65.4313 3.14615 65.3356 2.9912 65.2217 2.87271C65.1077 2.75422 64.9779 2.66763 64.832 2.61295C64.6862 2.55826 64.5244 2.53091 64.3467 2.53091C64.1234 2.53091 63.9251 2.57421 63.752 2.6608C63.5833 2.74739 63.4398 2.88638 63.3213 3.07779C63.2028 3.26464 63.1117 3.51529 63.0479 3.82974C62.9886 4.13964 62.959 4.51789 62.959 4.96451V7.21353C62.959 7.57356 62.9772 7.89029 63.0137 8.16373C63.0547 8.43716 63.1139 8.67186 63.1914 8.86783C63.2734 9.05923 63.3691 9.21646 63.4785 9.33951C63.5924 9.458 63.7223 9.54459 63.8682 9.59927C64.0186 9.65396 64.1826 9.6813 64.3604 9.6813C64.5791 9.6813 64.7728 9.63801 64.9414 9.55142C65.1146 9.46028 65.2604 9.319 65.3789 9.12759C65.502 8.93163 65.5931 8.67642 65.6523 8.36197C65.7116 8.04752 65.7412 7.6647 65.7412 7.21353ZM75.7559 5.23111V6.95377C75.7559 7.70116 75.6761 8.34602 75.5166 8.88834C75.3571 9.4261 75.127 9.86815 74.8262 10.2145C74.5299 10.5563 74.1768 10.8092 73.7666 10.9733C73.3564 11.1374 72.9007 11.2194 72.3994 11.2194C71.9984 11.2194 71.6247 11.1693 71.2783 11.069C70.932 10.9642 70.6198 10.8024 70.3418 10.5836C70.0684 10.3649 69.8314 10.0892 69.6309 9.7565C69.4349 9.41926 69.2845 9.01822 69.1797 8.55338C69.0749 8.08853 69.0225 7.55533 69.0225 6.95377V5.23111C69.0225 4.48371 69.1022 3.84341 69.2617 3.31021C69.4258 2.77245 69.6559 2.33267 69.9521 1.99088C70.2529 1.64908 70.6084 1.39843 71.0186 1.23892C71.4287 1.07486 71.8844 0.992828 72.3857 0.992828C72.7868 0.992828 73.1582 1.04524 73.5 1.15005C73.8464 1.25032 74.1585 1.40754 74.4365 1.62173C74.7145 1.83593 74.9515 2.11164 75.1475 2.44888C75.3434 2.78157 75.4938 3.18033 75.5986 3.64517C75.7035 4.10546 75.7559 4.6341 75.7559 5.23111ZM73.7803 7.21353V4.96451C73.7803 4.60448 73.7598 4.29003 73.7188 4.02115C73.6823 3.75227 73.6253 3.5244 73.5479 3.33755C73.4704 3.14615 73.3747 2.9912 73.2607 2.87271C73.1468 2.75422 73.0169 2.66763 72.8711 2.61295C72.7253 2.55826 72.5635 2.53091 72.3857 2.53091C72.1624 2.53091 71.9642 2.57421 71.791 2.6608C71.6224 2.74739 71.4788 2.88638 71.3604 3.07779C71.2419 3.26464 71.1507 3.51529 71.0869 3.82974C71.0277 4.13964 70.998 4.51789 70.998 4.96451V7.21353C70.998 7.57356 71.0163 7.89029 71.0527 8.16373C71.0938 8.43716 71.153 8.67186 71.2305 8.86783C71.3125 9.05923 71.4082 9.21646 71.5176 9.33951C71.6315 9.458 71.7614 9.54459 71.9072 9.59927C72.0576 9.65396 72.2217 9.6813 72.3994 9.6813C72.6182 9.6813 72.8118 9.63801 72.9805 9.55142C73.1536 9.46028 73.2995 9.319 73.418 9.12759C73.541 8.93163 73.6322 8.67642 73.6914 8.36197C73.7507 8.04752 73.7803 7.6647 73.7803 7.21353ZM87.1855 9.48306V11.0827H82.1748V9.48306H87.1855ZM82.8379 1.12955V11.0827H80.7871V1.12955H82.8379ZM91.2529 1.12955V11.0827H89.209V1.12955H91.2529ZM94.3154 1.12955V2.73599H86.1943V1.12955H94.3154ZM101.062 7.78091H103.106C103.065 8.45084 102.881 9.04556 102.553 9.56509C102.229 10.0846 101.776 10.4902 101.192 10.7819C100.614 11.0736 99.9163 11.2194 99.1006 11.2194C98.4626 11.2194 97.8906 11.11 97.3848 10.8913C96.8789 10.668 96.446 10.3489 96.0859 9.93423C95.7305 9.51952 95.4593 9.01822 95.2725 8.43033C95.0856 7.84244 94.9922 7.18391 94.9922 6.45474V5.76431C94.9922 5.03515 95.0879 4.37662 95.2793 3.78873C95.4753 3.19628 95.7533 2.6927 96.1133 2.27798C96.4779 1.86327 96.9131 1.54426 97.4189 1.32095C97.9248 1.09765 98.4899 0.985992 99.1143 0.985992C99.9437 0.985992 100.643 1.13638 101.213 1.43716C101.787 1.73795 102.231 2.15266 102.546 2.6813C102.865 3.20995 103.056 3.81151 103.12 4.48599H101.069C101.047 4.08495 100.967 3.74543 100.83 3.46744C100.693 3.18489 100.486 2.97297 100.208 2.8317C99.9346 2.68586 99.57 2.61295 99.1143 2.61295C98.7725 2.61295 98.474 2.67675 98.2188 2.80435C97.9635 2.93196 97.7493 3.12564 97.5762 3.38541C97.403 3.64517 97.2731 3.9733 97.1865 4.36978C97.1045 4.76171 97.0635 5.222 97.0635 5.75064V6.45474C97.0635 6.96972 97.1022 7.42317 97.1797 7.81509C97.2572 8.20246 97.3757 8.53059 97.5352 8.79947C97.6992 9.06379 97.9089 9.26431 98.1641 9.40103C98.4238 9.53319 98.736 9.59927 99.1006 9.59927C99.529 9.59927 99.8822 9.53091 100.16 9.3942C100.438 9.25748 100.65 9.05468 100.796 8.7858C100.946 8.51692 101.035 8.18196 101.062 7.78091Z" fill="#4F4F4F"/>
</svg>
