<svg width="105" height="13" viewBox="0 0 105 13" fill="none" xmlns="http://www.w3.org/2000/svg">
<path d="M7.54688 11.5801V12.8066H1.52344V11.5801H7.54688ZM1.82812 1.43164V12.8066H0.320312V1.43164H1.82812ZM6.75 6.32227V7.54883H1.52344V6.32227H6.75ZM7.46875 1.43164V2.66602H1.52344V1.43164H7.46875ZM12.7344 4.35352V5.46289H8.16406V4.35352H12.7344ZM9.71094 2.29883H11.1562V10.7129C11.1562 10.9993 11.2005 11.2155 11.2891 11.3613C11.3776 11.5072 11.4922 11.6035 11.6328 11.6504C11.7734 11.6973 11.9245 11.7207 12.0859 11.7207C12.2057 11.7207 12.3307 11.7103 12.4609 11.6895C12.5964 11.6634 12.6979 11.6426 12.7656 11.627L12.7734 12.8066C12.6589 12.8431 12.5078 12.877 12.3203 12.9082C12.138 12.9447 11.9167 12.9629 11.6562 12.9629C11.3021 12.9629 10.9766 12.8926 10.6797 12.752C10.3828 12.6113 10.1458 12.377 9.96875 12.0488C9.79688 11.7155 9.71094 11.2676 9.71094 10.7051V2.29883ZM15.875 0.806641V12.8066H14.4297V0.806641H15.875ZM15.5312 8.25977L14.9297 8.23633C14.9349 7.6582 15.0208 7.12435 15.1875 6.63477C15.3542 6.13997 15.5885 5.71029 15.8906 5.3457C16.1927 4.98112 16.5521 4.69987 16.9688 4.50195C17.3906 4.29883 17.8568 4.19727 18.3672 4.19727C18.7839 4.19727 19.1589 4.25456 19.4922 4.36914C19.8255 4.47852 20.1094 4.6556 20.3438 4.90039C20.5833 5.14518 20.7656 5.46289 20.8906 5.85352C21.0156 6.23893 21.0781 6.71029 21.0781 7.26758V12.8066H19.625V7.25195C19.625 6.80924 19.5599 6.45508 19.4297 6.18945C19.2995 5.91862 19.1094 5.72331 18.8594 5.60352C18.6094 5.47852 18.3021 5.41602 17.9375 5.41602C17.5781 5.41602 17.25 5.49154 16.9531 5.64258C16.6615 5.79362 16.4089 6.00195 16.1953 6.26758C15.987 6.5332 15.8229 6.83789 15.7031 7.18164C15.5885 7.52018 15.5312 7.87956 15.5312 8.25977ZM26.75 12.9629C26.1615 12.9629 25.6276 12.8639 25.1484 12.666C24.6745 12.4629 24.2656 12.179 23.9219 11.8145C23.5833 11.4499 23.3229 11.0176 23.1406 10.5176C22.9583 10.0176 22.8672 9.4707 22.8672 8.87695V8.54883C22.8672 7.86133 22.9688 7.24935 23.1719 6.71289C23.375 6.17122 23.651 5.71289 24 5.33789C24.349 4.96289 24.7448 4.67904 25.1875 4.48633C25.6302 4.29362 26.0885 4.19727 26.5625 4.19727C27.1667 4.19727 27.6875 4.30143 28.125 4.50977C28.5677 4.7181 28.9297 5.00977 29.2109 5.38477C29.4922 5.75456 29.7005 6.19206 29.8359 6.69727C29.9714 7.19727 30.0391 7.74414 30.0391 8.33789V8.98633H23.7266V7.80664H28.5938V7.69727C28.5729 7.32227 28.4948 6.95768 28.3594 6.60352C28.2292 6.24935 28.0208 5.95768 27.7344 5.72852C27.4479 5.49935 27.0573 5.38477 26.5625 5.38477C26.2344 5.38477 25.9323 5.45508 25.6562 5.5957C25.3802 5.73112 25.1432 5.93424 24.9453 6.20508C24.7474 6.47591 24.5938 6.80664 24.4844 7.19727C24.375 7.58789 24.3203 8.03841 24.3203 8.54883V8.87695C24.3203 9.27799 24.375 9.6556 24.4844 10.0098C24.599 10.3587 24.763 10.666 24.9766 10.9316C25.1953 11.1973 25.4583 11.4056 25.7656 11.5566C26.0781 11.7077 26.4323 11.7832 26.8281 11.7832C27.3385 11.7832 27.7708 11.679 28.125 11.4707C28.4792 11.2624 28.7891 10.9837 29.0547 10.6348L29.9297 11.3301C29.7474 11.6061 29.5156 11.8691 29.2344 12.1191C28.9531 12.3691 28.6068 12.5723 28.1953 12.7285C27.7891 12.8848 27.3073 12.9629 26.75 12.9629ZM33.1719 5.68164V12.8066H31.7266V4.35352H33.1328L33.1719 5.68164ZM35.8125 4.30664L35.8047 5.65039C35.6849 5.62435 35.5703 5.60872 35.4609 5.60352C35.3568 5.5931 35.237 5.58789 35.1016 5.58789C34.7682 5.58789 34.474 5.63997 34.2188 5.74414C33.9635 5.84831 33.7474 5.99414 33.5703 6.18164C33.3932 6.36914 33.2526 6.5931 33.1484 6.85352C33.0495 7.10872 32.9844 7.38997 32.9531 7.69727L32.5469 7.93164C32.5469 7.42122 32.5964 6.94206 32.6953 6.49414C32.7995 6.04622 32.9583 5.65039 33.1719 5.30664C33.3854 4.95768 33.6562 4.68685 33.9844 4.49414C34.3177 4.29622 34.7135 4.19727 35.1719 4.19727C35.276 4.19727 35.3958 4.21029 35.5312 4.23633C35.6667 4.25716 35.7604 4.2806 35.8125 4.30664ZM40.5 12.9629C39.9115 12.9629 39.3776 12.8639 38.8984 12.666C38.4245 12.4629 38.0156 12.179 37.6719 11.8145C37.3333 11.4499 37.0729 11.0176 36.8906 10.5176C36.7083 10.0176 36.6172 9.4707 36.6172 8.87695V8.54883C36.6172 7.86133 36.7188 7.24935 36.9219 6.71289C37.125 6.17122 37.401 5.71289 37.75 5.33789C38.099 4.96289 38.4948 4.67904 38.9375 4.48633C39.3802 4.29362 39.8385 4.19727 40.3125 4.19727C40.9167 4.19727 41.4375 4.30143 41.875 4.50977C42.3177 4.7181 42.6797 5.00977 42.9609 5.38477C43.2422 5.75456 43.4505 6.19206 43.5859 6.69727C43.7214 7.19727 43.7891 7.74414 43.7891 8.33789V8.98633H37.4766V7.80664H42.3438V7.69727C42.3229 7.32227 42.2448 6.95768 42.1094 6.60352C41.9792 6.24935 41.7708 5.95768 41.4844 5.72852C41.1979 5.49935 40.8073 5.38477 40.3125 5.38477C39.9844 5.38477 39.6823 5.45508 39.4062 5.5957C39.1302 5.73112 38.8932 5.93424 38.6953 6.20508C38.4974 6.47591 38.3438 6.80664 38.2344 7.19727C38.125 7.58789 38.0703 8.03841 38.0703 8.54883V8.87695C38.0703 9.27799 38.125 9.6556 38.2344 10.0098C38.349 10.3587 38.513 10.666 38.7266 10.9316C38.9453 11.1973 39.2083 11.4056 39.5156 11.5566C39.8281 11.7077 40.1823 11.7832 40.5781 11.7832C41.0885 11.7832 41.5208 11.679 41.875 11.4707C42.2292 11.2624 42.5391 10.9837 42.8047 10.6348L43.6797 11.3301C43.4974 11.6061 43.2656 11.8691 42.9844 12.1191C42.7031 12.3691 42.3568 12.5723 41.9453 12.7285C41.5391 12.8848 41.0573 12.9629 40.5 12.9629ZM50.6484 10.8535V4.35352H52.1016V12.8066H50.7188L50.6484 10.8535ZM50.9219 9.07227L51.5234 9.05664C51.5234 9.61914 51.4635 10.14 51.3438 10.6191C51.2292 11.0931 51.0417 11.5046 50.7812 11.8535C50.5208 12.2025 50.1797 12.4759 49.7578 12.6738C49.3359 12.8665 48.8229 12.9629 48.2188 12.9629C47.8073 12.9629 47.4297 12.903 47.0859 12.7832C46.7474 12.6634 46.4557 12.4785 46.2109 12.2285C45.9661 11.9785 45.776 11.653 45.6406 11.252C45.5104 10.8509 45.4453 10.3691 45.4453 9.80664V4.35352H46.8906V9.82227C46.8906 10.2025 46.9323 10.5176 47.0156 10.7676C47.1042 11.0124 47.2214 11.2077 47.3672 11.3535C47.5182 11.4941 47.6849 11.5931 47.8672 11.6504C48.0547 11.7077 48.2474 11.7363 48.4453 11.7363C49.0599 11.7363 49.5469 11.6191 49.9062 11.3848C50.2656 11.1452 50.5234 10.8249 50.6797 10.4238C50.8411 10.0176 50.9219 9.56706 50.9219 9.07227ZM55.7422 6.0332V12.8066H54.2891V4.35352H55.6641L55.7422 6.0332ZM55.4453 8.25977L54.7734 8.23633C54.7786 7.6582 54.8542 7.12435 55 6.63477C55.1458 6.13997 55.362 5.71029 55.6484 5.3457C55.9349 4.98112 56.2917 4.69987 56.7188 4.50195C57.1458 4.29883 57.6406 4.19727 58.2031 4.19727C58.599 4.19727 58.9635 4.25456 59.2969 4.36914C59.6302 4.47852 59.9193 4.65299 60.1641 4.89258C60.4089 5.13216 60.599 5.43945 60.7344 5.81445C60.8698 6.18945 60.9375 6.64258 60.9375 7.17383V12.8066H59.4922V7.24414C59.4922 6.80143 59.4167 6.44727 59.2656 6.18164C59.1198 5.91602 58.9115 5.72331 58.6406 5.60352C58.3698 5.47852 58.0521 5.41602 57.6875 5.41602C57.2604 5.41602 56.9036 5.49154 56.6172 5.64258C56.3307 5.79362 56.1016 6.00195 55.9297 6.26758C55.7578 6.5332 55.6328 6.83789 55.5547 7.18164C55.4818 7.52018 55.4453 7.87956 55.4453 8.25977ZM60.9219 7.46289L59.9531 7.75977C59.9583 7.29622 60.0339 6.85091 60.1797 6.42383C60.3307 5.99674 60.5469 5.61654 60.8281 5.2832C61.1146 4.94987 61.4661 4.68685 61.8828 4.49414C62.2995 4.29622 62.776 4.19727 63.3125 4.19727C63.7656 4.19727 64.1667 4.25716 64.5156 4.37695C64.8698 4.49674 65.1667 4.68164 65.4062 4.93164C65.651 5.17643 65.8359 5.49154 65.9609 5.87695C66.0859 6.26237 66.1484 6.7207 66.1484 7.25195V12.8066H64.6953V7.23633C64.6953 6.76237 64.6198 6.39518 64.4688 6.13477C64.3229 5.86914 64.1146 5.68424 63.8438 5.58008C63.5781 5.4707 63.2604 5.41602 62.8906 5.41602C62.5729 5.41602 62.2917 5.4707 62.0469 5.58008C61.8021 5.68945 61.5964 5.84049 61.4297 6.0332C61.263 6.2207 61.1354 6.43685 61.0469 6.68164C60.9635 6.92643 60.9219 7.18685 60.9219 7.46289Z" fill="black"/>
<path d="M83.7188 11.5801V12.8066H77.6953V11.5801H83.7188ZM78 1.43164V12.8066H76.4922V1.43164H78ZM82.9219 6.32227V7.54883H77.6953V6.32227H82.9219ZM83.6406 1.43164V2.66602H77.6953V1.43164H83.6406ZM89.9453 1.43164V12.8066H88.4609V1.43164H89.9453ZM93.6016 1.43164V2.66602H84.8125V1.43164H93.6016ZM102.719 6.32227V7.54883H96.5625V6.32227H102.719ZM96.7969 1.43164V12.8066H95.2891V1.43164H96.7969ZM104.031 1.43164V12.8066H102.531V1.43164H104.031Z" fill="#828282"/>
</svg>
