<svg width="15" height="12" viewBox="0 0 15 12" fill="none" xmlns="http://www.w3.org/2000/svg">
<path d="M10.7061 4.42652C10.703 4.38043 10.7192 4.33499 10.7511 4.3003L12.1932 2.73009C12.2251 2.69539 12.2701 2.67423 12.3183 2.67126C12.3667 2.6683 12.4139 2.68376 12.4502 2.71425C13.1128 3.27172 13.6629 3.92917 14.0851 4.66831C14.1082 4.70887 14.1137 4.75656 14.1001 4.80087C14.0865 4.8452 14.0551 4.88257 14.0127 4.90471L12.0959 5.90744C12.0682 5.92196 12.0383 5.92883 12.0087 5.92883C11.9444 5.92883 11.8819 5.89604 11.8489 5.83815C11.5698 5.34959 11.206 4.91491 10.7676 4.54615C10.7313 4.51571 10.7092 4.47266 10.7061 4.42652Z" fill="#828282"/>
<path d="M10.0626 3.84517C10.0299 3.90417 9.96684 3.93778 9.90162 3.93778C9.87284 3.93778 9.84365 3.93124 9.81649 3.91744C9.30272 3.65667 8.75003 3.48652 8.17373 3.41169C8.07412 3.39877 8.00429 3.31099 8.0178 3.21564L8.3114 1.14404C8.3249 1.04871 8.41689 0.981974 8.51625 0.994805C9.39145 1.10841 10.2307 1.36676 11.0107 1.76268C11.0995 1.80777 11.1333 1.91318 11.0862 1.99821L10.0626 3.84517Z" fill="#828282"/>
<path d="M12.4072 6.64828L14.5155 6.10085C14.5621 6.08879 14.6118 6.09486 14.6537 6.11785C14.6956 6.14084 14.7262 6.17879 14.7388 6.22338C14.9121 6.83476 15 7.46842 15 8.10677C15 8.21601 14.9973 8.3256 14.9916 8.44183C14.9871 8.53521 14.9066 8.60797 14.8099 8.60797C14.8071 8.60797 14.8042 8.60792 14.8013 8.60778L12.6192 8.51131C12.571 8.5092 12.5256 8.48879 12.4931 8.45466C12.4606 8.42053 12.4435 8.37537 12.4458 8.32923C12.4496 8.25087 12.4514 8.17808 12.4514 8.10677C12.4514 7.68408 12.3935 7.26531 12.2792 6.86202C12.2529 6.76918 12.3102 6.6735 12.4072 6.64828Z" fill="#828282"/>
<path d="M4.24678 1.63797C5.04116 1.27146 5.88991 1.04433 6.76944 0.962748C6.81777 0.958104 6.86547 0.972319 6.90275 1.00166C6.94003 1.03103 6.96356 1.07335 6.96821 1.11937L7.17882 3.20026C7.18853 3.29601 7.11525 3.38118 7.01517 3.39045C6.43547 3.44419 5.87638 3.5938 5.35341 3.83505C5.32854 3.84654 5.3015 3.85236 5.27437 3.85236C5.25413 3.85236 5.23383 3.8491 5.21432 3.8426C5.16876 3.82738 5.13136 3.79541 5.1104 3.75379L4.16187 1.87052C4.11817 1.78387 4.15619 1.67973 4.24678 1.63797Z" fill="#828282"/>
<path d="M1.03835 4.56039C1.02658 4.51557 1.03384 4.46816 1.05864 4.42847C1.51041 3.70518 2.08641 3.06838 2.7706 2.53584C2.80807 2.50671 2.85589 2.49306 2.9041 2.49768C2.95212 2.50244 2.99621 2.52522 3.02665 2.56106L4.40501 4.18295C4.43545 4.21882 4.44981 4.26477 4.44483 4.31072C4.43991 4.35667 4.41608 4.39887 4.37861 4.42805C3.92591 4.78035 3.54491 5.20153 3.24614 5.67991C3.21202 5.73447 3.15165 5.76478 3.08969 5.76478C3.0579 5.76478 3.02572 5.7568 2.99648 5.74005L1.12146 4.66742C1.08007 4.64371 1.05016 4.60522 1.03835 4.56039Z" fill="#828282"/>
<path d="M0.341925 5.95854C0.372023 5.8667 0.474204 5.81555 0.570061 5.84437L2.65457 6.46945C2.75052 6.49821 2.8039 6.59595 2.77385 6.68774C2.62425 7.14481 2.54839 7.62223 2.54839 8.10673C2.54839 8.17806 2.55025 8.25085 2.55403 8.32919C2.55628 8.37533 2.53927 8.42049 2.50672 8.45461C2.4742 8.48877 2.42883 8.50915 2.38062 8.51126L0.198495 8.60774C0.195603 8.60786 0.19276 8.60793 0.189917 8.60793C0.0932506 8.60793 0.0127606 8.53514 0.00820178 8.44178C0.00258905 8.32556 -0.000181551 8.21597 -0.000181551 8.10673C-0.000132532 7.37455 0.114916 6.6518 0.341925 5.95854Z" fill="#828282"/>
<path d="M7.50634 7.73689C7.53774 7.73689 7.56896 7.73787 7.60006 7.73947L10.5572 6.0697C10.6295 6.02877 10.7214 6.03902 10.7821 6.09468C10.8427 6.1503 10.8573 6.23775 10.8177 6.30863L9.20464 9.20214C9.21057 9.25787 9.21374 9.31414 9.21374 9.37091C9.21374 9.80739 9.03614 10.2177 8.71366 10.5263C8.39116 10.835 7.96239 11.0049 7.50631 11.0049C7.05024 11.0049 6.62149 10.8349 6.29901 10.5263C5.97652 10.2177 5.79894 9.80739 5.79894 9.37091C5.79894 8.93442 5.97654 8.5241 6.29901 8.21548C6.62149 7.90686 7.05029 7.73689 7.50634 7.73689Z" fill="#828282"/>
</svg>
