<svg width="105" height="43" viewBox="0 0 105 43" fill="none" xmlns="http://www.w3.org/2000/svg">
<path d="M1 24.9302C2.68488 22.0749 3.2823 20.3063 4.4477 23.8489C4.92359 25.2955 5.0624 27.8279 5.64482 28.8396C7.20313 31.5465 7.22239 36.6663 8.75732 32.0004C9.90115 28.5233 11.5466 33.1279 13.2824 32.4578C16.0355 31.3951 16.8879 33.9851 18.6695 36.9079C19.7178 38.6278 21.6669 42.2822 22.9791 42.1481C24.7057 41.9717 25.2331 35.6288 27.0972 34.7037C28.1382 34.187 28.9465 36.1399 29.8745 35.2443C30.4337 34.7047 30.4635 32.7121 30.9758 32.4578C31.8068 32.0454 31.3679 33.8303 31.8138 33.8303C33.0366 33.8303 32.9378 32.5175 33.8489 34.4957C34.6995 36.3427 35.9816 35.2827 36.7699 33.9135C38.0383 31.7101 39.9275 31.025 41.3189 29.0475C42.5451 27.3048 45.2149 24.5582 46.7778 24.0152C48.2101 23.5176 48.9294 26.3442 49.9621 26.3442C50.818 26.3442 53.0488 24.2064 53.5774 23.0587C54.4043 21.2633 55.5948 24.4426 56.3787 24.14C57.6064 23.6661 58.8313 19.5469 59.7066 18.0264C60.5448 16.5705 62.4127 11.5385 63.705 11.5385C64.0906 11.5385 66.69 13.8501 67.033 14.2834C68.2302 15.7958 69.9115 18.3638 71.2469 19.5236C73.5716 21.5427 75.9198 14.8314 77.8789 13.7843C79.1581 13.1006 78.5288 18.065 80.2971 16.5292C80.9971 15.9212 81.3739 14.7562 82.2125 14.4913C83.388 14.1201 83.5808 16.9885 84.4152 17.4026C86.2951 18.3356 88.5641 14.111 89.8261 12.1623C90.595 10.9751 93.8147 6.1829 94.9498 8.04501C95.9495 9.68505 97.0706 12.2127 98.182 9.20951C99.4023 5.91214 102.127 2.60169 104 0.974854" stroke="url(#paint0_linear_2_101)" stroke-width="1.5" stroke-linecap="round" stroke-linejoin="round"/>
<defs>
<linearGradient id="paint0_linear_2_101" x1="-2.5" y1="24.5762" x2="104.011" y2="13.1245" gradientUnits="userSpaceOnUse">
<stop stop-color="#2D9CDB"/>
<stop offset="1" stop-color="#255F80"/>
</linearGradient>
</defs>
</svg>
