<svg width="68" height="19" viewBox="0 0 68 19" fill="none" xmlns="http://www.w3.org/2000/svg">
<path d="M12.8438 15.2907V17.9274H1.17188V15.6774L6.69141 9.75943C7.24609 9.14224 7.68359 8.59927 8.00391 8.13052C8.32422 7.65396 8.55469 7.22818 8.69531 6.85318C8.84375 6.47037 8.91797 6.10709 8.91797 5.76334C8.91797 5.24771 8.83203 4.8063 8.66016 4.43912C8.48828 4.06412 8.23438 3.77505 7.89844 3.57193C7.57031 3.3688 7.16406 3.26724 6.67969 3.26724C6.16406 3.26724 5.71875 3.39224 5.34375 3.64224C4.97656 3.89224 4.69531 4.2399 4.5 4.68521C4.3125 5.13052 4.21875 5.63443 4.21875 6.19693H0.832031C0.832031 5.1813 1.07422 4.25162 1.55859 3.40787C2.04297 2.5563 2.72656 1.88052 3.60938 1.38052C4.49219 0.872711 5.53906 0.618805 6.75 0.618805C7.94531 0.618805 8.95312 0.814117 9.77344 1.20474C10.6016 1.58755 11.2266 2.14224 11.6484 2.8688C12.0781 3.58755 12.293 4.44693 12.293 5.44693C12.293 6.00943 12.2031 6.56021 12.0234 7.09927C11.8438 7.63052 11.5859 8.16177 11.25 8.69302C10.9219 9.21646 10.5234 9.74771 10.0547 10.2868C9.58594 10.8258 9.06641 11.3844 8.49609 11.9626L5.53125 15.2907H12.8438ZM26.9062 11.5524V14.2008H14.6133L14.4492 12.1501L21.5625 0.864899H24.2461L21.3398 5.72818L17.8008 11.5524H26.9062ZM24.9727 0.864899V17.9274H21.5977V0.864899H24.9727ZM33.8701 7.97427H35.6064L38.1631 15.2819L40.7197 7.97427H42.4561L38.8604 17.9274H37.4658L33.8701 7.97427ZM32.9336 7.97427H34.6631L34.9775 15.0973V17.9274H32.9336V7.97427ZM41.6631 7.97427H43.3994V17.9274H41.3486V15.0973L41.6631 7.97427ZM51.835 12.028V13.6276H46.6396V12.028H51.835ZM47.248 7.97427V17.9274H45.1973V7.97427H47.248ZM53.2979 7.97427V17.9274H51.2539V7.97427H53.2979ZM59.2109 7.97427L55.5605 18.7819H54.0977L57.748 7.97427H59.2109ZM65.459 15.3229C65.459 15.1452 65.4316 14.9857 65.377 14.8444C65.3268 14.6986 65.2311 14.5664 65.0898 14.4479C64.9486 14.3249 64.7503 14.2041 64.4951 14.0856C64.2399 13.9671 63.9095 13.8441 63.5039 13.7165C63.0527 13.5706 62.6243 13.4066 62.2188 13.2243C61.8177 13.042 61.4622 12.8301 61.1523 12.5885C60.847 12.3424 60.6055 12.0576 60.4277 11.734C60.2546 11.4105 60.168 11.0345 60.168 10.6061C60.168 10.1914 60.2591 9.81542 60.4414 9.47818C60.6237 9.13638 60.8789 8.84472 61.207 8.60318C61.5352 8.35709 61.9225 8.16796 62.3691 8.0358C62.8203 7.90364 63.3148 7.83755 63.8525 7.83755C64.5863 7.83755 65.2266 7.96972 65.7734 8.23404C66.3203 8.49836 66.7441 8.86067 67.0449 9.32095C67.3503 9.78124 67.5029 10.3076 67.5029 10.9001H65.4658C65.4658 10.6084 65.4043 10.3532 65.2812 10.1344C65.1628 9.91112 64.9805 9.73567 64.7344 9.60806C64.4928 9.48046 64.1875 9.41666 63.8184 9.41666C63.4629 9.41666 63.1667 9.47134 62.9297 9.58072C62.6927 9.68554 62.515 9.82909 62.3965 10.0114C62.278 10.1891 62.2188 10.3896 62.2188 10.6129C62.2188 10.7816 62.2598 10.9342 62.3418 11.071C62.4284 11.2077 62.556 11.3353 62.7246 11.4538C62.8932 11.5723 63.1006 11.6839 63.3467 11.7887C63.5928 11.8935 63.8776 11.9961 64.2012 12.0963C64.7435 12.2604 65.2197 12.445 65.6299 12.6501C66.0446 12.8551 66.391 13.0853 66.6689 13.3405C66.9469 13.5957 67.1566 13.8851 67.2979 14.2086C67.4391 14.5322 67.5098 14.8991 67.5098 15.3092C67.5098 15.7422 67.4255 16.1295 67.2568 16.4713C67.0882 16.8131 66.8444 17.1025 66.5254 17.3395C66.2064 17.5765 65.8258 17.7565 65.3838 17.8795C64.9417 18.0026 64.4473 18.0641 63.9004 18.0641C63.4082 18.0641 62.9229 18.0003 62.4443 17.8727C61.9658 17.7405 61.5306 17.5423 61.1387 17.278C60.7513 17.0137 60.4414 16.6764 60.209 16.2663C59.9766 15.8561 59.8604 15.3708 59.8604 14.8102H61.918C61.918 15.1201 61.9658 15.3822 62.0615 15.5963C62.1572 15.8105 62.2917 15.9837 62.4648 16.1159C62.6426 16.248 62.8522 16.3437 63.0938 16.403C63.3398 16.4622 63.6087 16.4919 63.9004 16.4919C64.2559 16.4919 64.5475 16.4417 64.7754 16.3415C65.0078 16.2412 65.1787 16.1022 65.2881 15.9245C65.402 15.7467 65.459 15.5462 65.459 15.3229Z" fill="black"/>
</svg>
