<svg width="4" height="8" viewBox="0 0 4 8" fill="none" xmlns="http://www.w3.org/2000/svg">
<path d="M1.92157 0.861632L0.0167605 3.49228C-0.00333522 3.52013 -0.00543051 3.55624 0.0108556 3.58599C0.0273322 3.61583 0.0597139 3.63452 0.0951434 3.63452L3.90476 3.63452C3.94019 3.63452 3.97267 3.61583 3.98914 3.58599C3.99638 3.57275 4 3.55823 4 3.54381C4 3.52576 3.99429 3.5078 3.98314 3.49228L2.07833 0.861632C2.06052 0.837049 2.03129 0.822444 1.99995 0.822444C1.96862 0.822444 1.93938 0.837139 1.92157 0.861632Z" fill="#828282"/>
<path d="M2.07843 7.81348L3.98324 5.18283C4.00334 5.15498 4.00543 5.11887 3.98914 5.08912C3.97267 5.05928 3.94029 5.04059 3.90486 5.04059L0.0952404 5.04059C0.0598109 5.04059 0.0273342 5.05928 0.0108576 5.08912C0.00361919 5.10236 0 5.11688 0 5.1313C0 5.14935 0.00571442 5.16731 0.0168576 5.18283L1.92167 7.81348C1.93948 7.83806 1.96871 7.85267 2.00005 7.85267C2.03138 7.85267 2.06062 7.83797 2.07843 7.81348Z" fill="#828282"/>
</svg>
