<svg width="298" height="123" viewBox="0 0 298 123" fill="none" xmlns="http://www.w3.org/2000/svg">
<path fill-rule="evenodd" clip-rule="evenodd" d="M123.975 99.1679C123.985 99.0012 124 98.8355 124 98.6668C124 93.9515 120.194 90.1291 115.5 90.1291C110.805 90.1291 107 93.9515 107 98.6668C107 98.8355 107.016 99.0012 107.025 99.1679H106.025C106.017 99.0002 106 98.8355 106 98.6668C106 94.3452 108.861 90.6996 112.783 89.5255C110.552 88.4921 109 86.2314 109 83.6011C109 79.9956 111.91 77.074 115.5 77.074C119.09 77.074 122 79.9956 122 83.6011C122 86.2314 120.448 88.4921 118.217 89.5255C122.139 90.6996 125 94.3452 125 98.6668C125 98.8355 124.983 99.0002 124.975 99.1679H123.975ZM121 83.6011C121 80.551 118.538 78.0763 115.5 78.0763C112.462 78.0763 110 80.551 110 83.6011C110 86.6522 112.462 89.1248 115.5 89.1248C118.538 89.1248 121 86.6522 121 83.6011Z" fill="black"/>
<g filter="url(#filter0_d_2054_25)">
<rect x="4" y="0.746246" width="290" height="113.487" rx="5" fill="white"/>
</g>
<path d="M62.8438 63.295V65.9317H51.1719V63.6817L56.6914 57.7637C57.2461 57.1465 57.6836 56.6036 58.0039 56.1348C58.3242 55.6583 58.5547 55.2325 58.6953 54.8575C58.8438 54.4747 58.918 54.1114 58.918 53.7676C58.918 53.252 58.832 52.8106 58.6602 52.4434C58.4883 52.0684 58.2344 51.7794 57.8984 51.5762C57.5703 51.3731 57.1641 51.2715 56.6797 51.2715C56.1641 51.2715 55.7188 51.3965 55.3438 51.6465C54.9766 51.8965 54.6953 52.2442 54.5 52.6895C54.3125 53.1348 54.2188 53.6387 54.2188 54.2012H50.832C50.832 53.1856 51.0742 52.2559 51.5586 51.4122C52.043 50.5606 52.7266 49.8848 53.6094 49.3848C54.4922 48.877 55.5391 48.6231 56.75 48.6231C57.9453 48.6231 58.9531 48.8184 59.7734 49.209C60.6016 49.5919 61.2266 50.1465 61.6484 50.8731C62.0781 51.5919 62.293 52.4512 62.293 53.4512C62.293 54.0137 62.2031 54.5645 62.0234 55.1036C61.8438 55.6348 61.5859 56.1661 61.25 56.6973C60.9219 57.2208 60.5234 57.752 60.0547 58.2911C59.5859 58.8301 59.0664 59.3887 58.4961 59.9669L55.5312 63.295H62.8438ZM76.9062 59.5567V62.2051H64.6133L64.4492 60.1544L71.5625 48.8692H74.2461L71.3398 53.7325L67.8008 59.5567H76.9062ZM74.9727 48.8692V65.9317H71.5977V48.8692H74.9727ZM83.8701 55.9786H85.6064L88.1631 63.2862L90.7197 55.9786H92.4561L88.8604 65.9317H87.4658L83.8701 55.9786ZM82.9336 55.9786H84.6631L84.9775 63.1016V65.9317H82.9336V55.9786ZM91.6631 55.9786H93.3994V65.9317H91.3486V63.1016L91.6631 55.9786ZM101.835 60.0323V61.6319H96.6396V60.0323H101.835ZM97.248 55.9786V65.9317H95.1973V55.9786H97.248ZM103.298 55.9786V65.9317H101.254V55.9786H103.298ZM109.211 55.9786L105.561 66.7862H104.098L107.748 55.9786H109.211ZM115.459 63.3272C115.459 63.1495 115.432 62.99 115.377 62.8487C115.327 62.7029 115.231 62.5707 115.09 62.4522C114.949 62.3292 114.75 62.2084 114.495 62.0899C114.24 61.9714 113.91 61.8484 113.504 61.7208C113.053 61.5749 112.624 61.4109 112.219 61.2286C111.818 61.0463 111.462 60.8344 111.152 60.5928C110.847 60.3467 110.605 60.0619 110.428 59.7383C110.255 59.4148 110.168 59.0388 110.168 58.6104C110.168 58.1957 110.259 57.8197 110.441 57.4825C110.624 57.1407 110.879 56.849 111.207 56.6075C111.535 56.3614 111.923 56.1723 112.369 56.0401C112.82 55.9079 113.315 55.8419 113.853 55.8419C114.586 55.8419 115.227 55.974 115.773 56.2383C116.32 56.5027 116.744 56.865 117.045 57.3253C117.35 57.7855 117.503 58.3119 117.503 58.9044H115.466C115.466 58.6127 115.404 58.3575 115.281 58.1387C115.163 57.9154 114.98 57.74 114.734 57.6124C114.493 57.4848 114.188 57.421 113.818 57.421C113.463 57.421 113.167 57.4756 112.93 57.585C112.693 57.6898 112.515 57.8334 112.396 58.0157C112.278 58.1934 112.219 58.3939 112.219 58.6172C112.219 58.7859 112.26 58.9385 112.342 59.0753C112.428 59.212 112.556 59.3396 112.725 59.4581C112.893 59.5766 113.101 59.6882 113.347 59.793C113.593 59.8978 113.878 60.0004 114.201 60.1006C114.743 60.2647 115.22 60.4493 115.63 60.6544C116.045 60.8594 116.391 61.0896 116.669 61.3448C116.947 61.6 117.157 61.8894 117.298 62.213C117.439 62.5365 117.51 62.9034 117.51 63.3135C117.51 63.7465 117.425 64.1339 117.257 64.4756C117.088 64.8174 116.844 65.1068 116.525 65.3438C116.206 65.5808 115.826 65.7608 115.384 65.8839C114.942 66.0069 114.447 66.0684 113.9 66.0684C113.408 66.0684 112.923 66.0046 112.444 65.877C111.966 65.7449 111.531 65.5466 111.139 65.2823C110.751 65.018 110.441 64.6807 110.209 64.2706C109.977 63.8604 109.86 63.3751 109.86 62.8145H111.918C111.918 63.1244 111.966 63.3865 112.062 63.6006C112.157 63.8148 112.292 63.988 112.465 64.1202C112.643 64.2523 112.852 64.348 113.094 64.4073C113.34 64.4665 113.609 64.4962 113.9 64.4962C114.256 64.4962 114.548 64.446 114.775 64.3458C115.008 64.2455 115.179 64.1065 115.288 63.9288C115.402 63.751 115.459 63.5505 115.459 63.3272Z" fill="black"/>
<path d="M34.3828 87.2354V88.9581C34.3828 89.7055 34.3031 90.3504 34.1436 90.8927C33.984 91.4304 33.7539 91.8725 33.4531 92.2188C33.1569 92.5606 32.8037 92.8136 32.3936 92.9776C31.9834 93.1417 31.5277 93.2237 31.0264 93.2237C30.6253 93.2237 30.2516 93.1736 29.9053 93.0733C29.5589 92.9685 29.2467 92.8067 28.9688 92.588C28.6953 92.3692 28.4583 92.0935 28.2578 91.7608C28.0618 91.4236 27.9115 91.0226 27.8066 90.5577C27.7018 90.0929 27.6494 89.5597 27.6494 88.9581V87.2354C27.6494 86.488 27.7292 85.8477 27.8887 85.3145C28.0527 84.7768 28.2829 84.337 28.5791 83.9952C28.8799 83.6534 29.2354 83.4028 29.6455 83.2433C30.0557 83.0792 30.5114 82.9972 31.0127 82.9972C31.4137 82.9972 31.7852 83.0496 32.127 83.1544C32.4733 83.2546 32.7855 83.4119 33.0635 83.6261C33.3415 83.8403 33.5785 84.116 33.7744 84.4532C33.9704 84.7859 34.1208 85.1847 34.2256 85.6495C34.3304 86.1098 34.3828 86.6384 34.3828 87.2354ZM32.4072 89.2179V86.9688C32.4072 86.6088 32.3867 86.2944 32.3457 86.0255C32.3092 85.7566 32.2523 85.5287 32.1748 85.3419C32.0973 85.1505 32.0016 84.9955 31.8877 84.877C31.7738 84.7586 31.6439 84.672 31.498 84.6173C31.3522 84.5626 31.1904 84.5352 31.0127 84.5352C30.7894 84.5352 30.5911 84.5785 30.418 84.6651C30.2493 84.7517 30.1058 84.8907 29.9873 85.0821C29.8688 85.269 29.7777 85.5196 29.7139 85.8341C29.6546 86.144 29.625 86.5222 29.625 86.9688V89.2179C29.625 89.5779 29.6432 89.8946 29.6797 90.1681C29.7207 90.4415 29.7799 90.6762 29.8574 90.8722C29.9395 91.0636 30.0352 91.2208 30.1445 91.3438C30.2585 91.4623 30.3883 91.5489 30.5342 91.6036C30.6846 91.6583 30.8486 91.6856 31.0264 91.6856C31.2451 91.6856 31.4388 91.6423 31.6074 91.5558C31.7806 91.4646 31.9264 91.3233 32.0449 91.1319C32.168 90.936 32.2591 90.6808 32.3184 90.3663C32.3776 90.0518 32.4072 89.669 32.4072 89.2179ZM35.9004 92.1368C35.9004 91.8451 36.0007 91.6013 36.2012 91.4054C36.4062 91.2094 36.6774 91.1114 37.0146 91.1114C37.3519 91.1114 37.6208 91.2094 37.8213 91.4054C38.0264 91.6013 38.1289 91.8451 38.1289 92.1368C38.1289 92.4285 38.0264 92.6723 37.8213 92.8683C37.6208 93.0642 37.3519 93.1622 37.0146 93.1622C36.6774 93.1622 36.4062 93.0642 36.2012 92.8683C36.0007 92.6723 35.9004 92.4285 35.9004 92.1368ZM44.582 83.1134V93.087H42.6133V85.3829L40.248 86.1349V84.5831L44.3701 83.1134H44.582ZM49.6748 88.5548L48.1025 88.1788L48.6699 83.1339H54.2617V84.7267H50.29L50.0439 86.9347C50.1761 86.8572 50.3766 86.7752 50.6455 86.6886C50.9144 86.5974 51.2152 86.5518 51.5479 86.5518C52.0309 86.5518 52.4593 86.627 52.833 86.7774C53.2067 86.9278 53.5234 87.1466 53.7832 87.4337C54.0475 87.7208 54.248 88.0717 54.3848 88.4864C54.5215 88.9011 54.5898 89.3705 54.5898 89.8946C54.5898 90.3367 54.5215 90.7582 54.3848 91.1593C54.248 91.5558 54.0407 91.9112 53.7627 92.2257C53.4847 92.5356 53.1361 92.7794 52.7168 92.9571C52.2975 93.1349 51.8008 93.2237 51.2266 93.2237C50.7982 93.2237 50.3835 93.1599 49.9824 93.0323C49.5859 92.9047 49.2282 92.7156 48.9092 92.4649C48.5947 92.2143 48.3418 91.9112 48.1504 91.5558C47.9635 91.1957 47.8656 90.7856 47.8564 90.3253H49.8115C49.8389 90.6078 49.9118 90.8517 50.0303 91.0567C50.1533 91.2573 50.3151 91.4122 50.5156 91.5216C50.7161 91.631 50.9508 91.6856 51.2197 91.6856C51.4704 91.6856 51.6846 91.6378 51.8623 91.5421C52.04 91.4464 52.1836 91.3142 52.293 91.1456C52.4023 90.9724 52.4821 90.7719 52.5322 90.544C52.5869 90.3116 52.6143 90.061 52.6143 89.7921C52.6143 89.5232 52.5824 89.2794 52.5186 89.0606C52.4548 88.8419 52.3568 88.6528 52.2246 88.4933C52.0924 88.3338 51.9238 88.2107 51.7188 88.1241C51.5182 88.0375 51.2835 87.9942 51.0146 87.9942C50.6501 87.9942 50.3675 88.0512 50.167 88.1651C49.971 88.2791 49.807 88.4089 49.6748 88.5548ZM62.5605 87.2354V88.9581C62.5605 89.7055 62.4808 90.3504 62.3213 90.8927C62.1618 91.4304 61.9316 91.8725 61.6309 92.2188C61.3346 92.5606 60.9814 92.8136 60.5713 92.9776C60.1611 93.1417 59.7054 93.2237 59.2041 93.2237C58.8031 93.2237 58.4294 93.1736 58.083 93.0733C57.7367 92.9685 57.4245 92.8067 57.1465 92.588C56.873 92.3692 56.6361 92.0935 56.4355 91.7608C56.2396 91.4236 56.0892 91.0226 55.9844 90.5577C55.8796 90.0929 55.8271 89.5597 55.8271 88.9581V87.2354C55.8271 86.488 55.9069 85.8477 56.0664 85.3145C56.2305 84.7768 56.4606 84.337 56.7568 83.9952C57.0576 83.6534 57.4131 83.4028 57.8232 83.2433C58.2334 83.0792 58.6891 82.9972 59.1904 82.9972C59.5915 82.9972 59.9629 83.0496 60.3047 83.1544C60.651 83.2546 60.9632 83.4119 61.2412 83.6261C61.5192 83.8403 61.7562 84.116 61.9521 84.4532C62.1481 84.7859 62.2985 85.1847 62.4033 85.6495C62.5081 86.1098 62.5605 86.6384 62.5605 87.2354ZM60.585 89.2179V86.9688C60.585 86.6088 60.5645 86.2944 60.5234 86.0255C60.487 85.7566 60.43 85.5287 60.3525 85.3419C60.2751 85.1505 60.1794 84.9955 60.0654 84.877C59.9515 84.7586 59.8216 84.672 59.6758 84.6173C59.5299 84.5626 59.3682 84.5352 59.1904 84.5352C58.9671 84.5352 58.7689 84.5785 58.5957 84.6651C58.4271 84.7517 58.2835 84.8907 58.165 85.0821C58.0465 85.269 57.9554 85.5196 57.8916 85.8341C57.8324 86.144 57.8027 86.5222 57.8027 86.9688V89.2179C57.8027 89.5779 57.821 89.8946 57.8574 90.1681C57.8984 90.4415 57.9577 90.6762 58.0352 90.8722C58.1172 91.0636 58.2129 91.2208 58.3223 91.3438C58.4362 91.4623 58.5661 91.5489 58.7119 91.6036C58.8623 91.6583 59.0264 91.6856 59.2041 91.6856C59.4229 91.6856 59.6165 91.6423 59.7852 91.5558C59.9583 91.4646 60.1042 91.3233 60.2227 91.1319C60.3457 90.936 60.4368 90.6808 60.4961 90.3663C60.5553 90.0518 60.585 89.669 60.585 89.2179ZM70.5996 87.2354V88.9581C70.5996 89.7055 70.5199 90.3504 70.3604 90.8927C70.2008 91.4304 69.9707 91.8725 69.6699 92.2188C69.3737 92.5606 69.0205 92.8136 68.6104 92.9776C68.2002 93.1417 67.7445 93.2237 67.2432 93.2237C66.8421 93.2237 66.4684 93.1736 66.1221 93.0733C65.7757 92.9685 65.4635 92.8067 65.1855 92.588C64.9121 92.3692 64.6751 92.0935 64.4746 91.7608C64.2786 91.4236 64.1283 91.0226 64.0234 90.5577C63.9186 90.0929 63.8662 89.5597 63.8662 88.9581V87.2354C63.8662 86.488 63.946 85.8477 64.1055 85.3145C64.2695 84.7768 64.4997 84.337 64.7959 83.9952C65.0967 83.6534 65.4521 83.4028 65.8623 83.2433C66.2725 83.0792 66.7282 82.9972 67.2295 82.9972C67.6305 82.9972 68.002 83.0496 68.3438 83.1544C68.6901 83.2546 69.0023 83.4119 69.2803 83.6261C69.5583 83.8403 69.7952 84.116 69.9912 84.4532C70.1872 84.7859 70.3376 85.1847 70.4424 85.6495C70.5472 86.1098 70.5996 86.6384 70.5996 87.2354ZM68.624 89.2179V86.9688C68.624 86.6088 68.6035 86.2944 68.5625 86.0255C68.526 85.7566 68.4691 85.5287 68.3916 85.3419C68.3141 85.1505 68.2184 84.9955 68.1045 84.877C67.9906 84.7586 67.8607 84.672 67.7148 84.6173C67.569 84.5626 67.4072 84.5352 67.2295 84.5352C67.0062 84.5352 66.8079 84.5785 66.6348 84.6651C66.4661 84.7517 66.3226 84.8907 66.2041 85.0821C66.0856 85.269 65.9945 85.5196 65.9307 85.8341C65.8714 86.144 65.8418 86.5222 65.8418 86.9688V89.2179C65.8418 89.5779 65.86 89.8946 65.8965 90.1681C65.9375 90.4415 65.9967 90.6762 66.0742 90.8722C66.1562 91.0636 66.252 91.2208 66.3613 91.3438C66.4753 91.4623 66.6051 91.5489 66.751 91.6036C66.9014 91.6583 67.0654 91.6856 67.2432 91.6856C67.4619 91.6856 67.6556 91.6423 67.8242 91.5558C67.9974 91.4646 68.1432 91.3233 68.2617 91.1319C68.3848 90.936 68.4759 90.6808 68.5352 90.3663C68.5944 90.0518 68.624 89.669 68.624 89.2179ZM78.6387 87.2354V88.9581C78.6387 89.7055 78.5589 90.3504 78.3994 90.8927C78.2399 91.4304 78.0098 91.8725 77.709 92.2188C77.4128 92.5606 77.0596 92.8136 76.6494 92.9776C76.2393 93.1417 75.7835 93.2237 75.2822 93.2237C74.8812 93.2237 74.5075 93.1736 74.1611 93.0733C73.8148 92.9685 73.5026 92.8067 73.2246 92.588C72.9512 92.3692 72.7142 92.0935 72.5137 91.7608C72.3177 91.4236 72.1673 91.0226 72.0625 90.5577C71.9577 90.0929 71.9053 89.5597 71.9053 88.9581V87.2354C71.9053 86.488 71.985 85.8477 72.1445 85.3145C72.3086 84.7768 72.5387 84.337 72.835 83.9952C73.1357 83.6534 73.4912 83.4028 73.9014 83.2433C74.3115 83.0792 74.7673 82.9972 75.2686 82.9972C75.6696 82.9972 76.041 83.0496 76.3828 83.1544C76.7292 83.2546 77.0413 83.4119 77.3193 83.6261C77.5973 83.8403 77.8343 84.116 78.0303 84.4532C78.2262 84.7859 78.3766 85.1847 78.4814 85.6495C78.5863 86.1098 78.6387 86.6384 78.6387 87.2354ZM76.6631 89.2179V86.9688C76.6631 86.6088 76.6426 86.2944 76.6016 86.0255C76.5651 85.7566 76.5081 85.5287 76.4307 85.3419C76.3532 85.1505 76.2575 84.9955 76.1436 84.877C76.0296 84.7586 75.8997 84.672 75.7539 84.6173C75.6081 84.5626 75.4463 84.5352 75.2686 84.5352C75.0452 84.5352 74.847 84.5785 74.6738 84.6651C74.5052 84.7517 74.3617 84.8907 74.2432 85.0821C74.1247 85.269 74.0335 85.5196 73.9697 85.8341C73.9105 86.144 73.8809 86.5222 73.8809 86.9688V89.2179C73.8809 89.5779 73.8991 89.8946 73.9355 90.1681C73.9766 90.4415 74.0358 90.6762 74.1133 90.8722C74.1953 91.0636 74.291 91.2208 74.4004 91.3438C74.5143 91.4623 74.6442 91.5489 74.79 91.6036C74.9404 91.6583 75.1045 91.6856 75.2822 91.6856C75.501 91.6856 75.6947 91.6423 75.8633 91.5558C76.0365 91.4646 76.1823 91.3233 76.3008 91.1319C76.4238 90.936 76.515 90.6808 76.5742 90.3663C76.6335 90.0518 76.6631 89.669 76.6631 89.2179ZM86.6777 87.2354V88.9581C86.6777 89.7055 86.598 90.3504 86.4385 90.8927C86.279 91.4304 86.0488 91.8725 85.748 92.2188C85.4518 92.5606 85.0986 92.8136 84.6885 92.9776C84.2783 93.1417 83.8226 93.2237 83.3213 93.2237C82.9202 93.2237 82.5465 93.1736 82.2002 93.0733C81.8538 92.9685 81.5417 92.8067 81.2637 92.588C80.9902 92.3692 80.7533 92.0935 80.5527 91.7608C80.3568 91.4236 80.2064 91.0226 80.1016 90.5577C79.9967 90.0929 79.9443 89.5597 79.9443 88.9581V87.2354C79.9443 86.488 80.0241 85.8477 80.1836 85.3145C80.3477 84.7768 80.5778 84.337 80.874 83.9952C81.1748 83.6534 81.5303 83.4028 81.9404 83.2433C82.3506 83.0792 82.8063 82.9972 83.3076 82.9972C83.7087 82.9972 84.0801 83.0496 84.4219 83.1544C84.7682 83.2546 85.0804 83.4119 85.3584 83.6261C85.6364 83.8403 85.8734 84.116 86.0693 84.4532C86.2653 84.7859 86.4157 85.1847 86.5205 85.6495C86.6253 86.1098 86.6777 86.6384 86.6777 87.2354ZM84.7021 89.2179V86.9688C84.7021 86.6088 84.6816 86.2944 84.6406 86.0255C84.6042 85.7566 84.5472 85.5287 84.4697 85.3419C84.3923 85.1505 84.2965 84.9955 84.1826 84.877C84.0687 84.7586 83.9388 84.672 83.793 84.6173C83.6471 84.5626 83.4854 84.5352 83.3076 84.5352C83.0843 84.5352 82.8861 84.5785 82.7129 84.6651C82.5443 84.7517 82.4007 84.8907 82.2822 85.0821C82.1637 85.269 82.0726 85.5196 82.0088 85.8341C81.9495 86.144 81.9199 86.5222 81.9199 86.9688V89.2179C81.9199 89.5779 81.9382 89.8946 81.9746 90.1681C82.0156 90.4415 82.0749 90.6762 82.1523 90.8722C82.2344 91.0636 82.3301 91.2208 82.4395 91.3438C82.5534 91.4623 82.6833 91.5489 82.8291 91.6036C82.9795 91.6583 83.1436 91.6856 83.3213 91.6856C83.54 91.6856 83.7337 91.6423 83.9023 91.5558C84.0755 91.4646 84.2214 91.3233 84.3398 91.1319C84.4629 90.936 84.554 90.6808 84.6133 90.3663C84.6725 90.0518 84.7021 89.669 84.7021 89.2179ZM94.7168 87.2354V88.9581C94.7168 89.7055 94.637 90.3504 94.4775 90.8927C94.318 91.4304 94.0879 91.8725 93.7871 92.2188C93.4909 92.5606 93.1377 92.8136 92.7275 92.9776C92.3174 93.1417 91.8617 93.2237 91.3604 93.2237C90.9593 93.2237 90.5856 93.1736 90.2393 93.0733C89.8929 92.9685 89.5807 92.8067 89.3027 92.588C89.0293 92.3692 88.7923 92.0935 88.5918 91.7608C88.3958 91.4236 88.2454 91.0226 88.1406 90.5577C88.0358 90.0929 87.9834 89.5597 87.9834 88.9581V87.2354C87.9834 86.488 88.0632 85.8477 88.2227 85.3145C88.3867 84.7768 88.6169 84.337 88.9131 83.9952C89.2139 83.6534 89.5693 83.4028 89.9795 83.2433C90.3896 83.0792 90.8454 82.9972 91.3467 82.9972C91.7477 82.9972 92.1191 83.0496 92.4609 83.1544C92.8073 83.2546 93.1195 83.4119 93.3975 83.6261C93.6755 83.8403 93.9124 84.116 94.1084 84.4532C94.3044 84.7859 94.4548 85.1847 94.5596 85.6495C94.6644 86.1098 94.7168 86.6384 94.7168 87.2354ZM92.7412 89.2179V86.9688C92.7412 86.6088 92.7207 86.2944 92.6797 86.0255C92.6432 85.7566 92.5863 85.5287 92.5088 85.3419C92.4313 85.1505 92.3356 84.9955 92.2217 84.877C92.1077 84.7586 91.9779 84.672 91.832 84.6173C91.6862 84.5626 91.5244 84.5352 91.3467 84.5352C91.1234 84.5352 90.9251 84.5785 90.752 84.6651C90.5833 84.7517 90.4398 84.8907 90.3213 85.0821C90.2028 85.269 90.1117 85.5196 90.0479 85.8341C89.9886 86.144 89.959 86.5222 89.959 86.9688V89.2179C89.959 89.5779 89.9772 89.8946 90.0137 90.1681C90.0547 90.4415 90.1139 90.6762 90.1914 90.8722C90.2734 91.0636 90.3691 91.2208 90.4785 91.3438C90.5924 91.4623 90.7223 91.5489 90.8682 91.6036C91.0186 91.6583 91.1826 91.6856 91.3604 91.6856C91.5791 91.6856 91.7728 91.6423 91.9414 91.5558C92.1146 91.4646 92.2604 91.3233 92.3789 91.1319C92.502 90.936 92.5931 90.6808 92.6523 90.3663C92.7116 90.0518 92.7412 89.669 92.7412 89.2179ZM102.756 87.2354V88.9581C102.756 89.7055 102.676 90.3504 102.517 90.8927C102.357 91.4304 102.127 91.8725 101.826 92.2188C101.53 92.5606 101.177 92.8136 100.767 92.9776C100.356 93.1417 99.9007 93.2237 99.3994 93.2237C98.9984 93.2237 98.6247 93.1736 98.2783 93.0733C97.932 92.9685 97.6198 92.8067 97.3418 92.588C97.0684 92.3692 96.8314 92.0935 96.6309 91.7608C96.4349 91.4236 96.2845 91.0226 96.1797 90.5577C96.0749 90.0929 96.0225 89.5597 96.0225 88.9581V87.2354C96.0225 86.488 96.1022 85.8477 96.2617 85.3145C96.4258 84.7768 96.6559 84.337 96.9521 83.9952C97.2529 83.6534 97.6084 83.4028 98.0186 83.2433C98.4287 83.0792 98.8844 82.9972 99.3857 82.9972C99.7868 82.9972 100.158 83.0496 100.5 83.1544C100.846 83.2546 101.159 83.4119 101.437 83.6261C101.715 83.8403 101.951 84.116 102.147 84.4532C102.343 84.7859 102.494 85.1847 102.599 85.6495C102.703 86.1098 102.756 86.6384 102.756 87.2354ZM100.78 89.2179V86.9688C100.78 86.6088 100.76 86.2944 100.719 86.0255C100.682 85.7566 100.625 85.5287 100.548 85.3419C100.47 85.1505 100.375 84.9955 100.261 84.877C100.147 84.7586 100.017 84.672 99.8711 84.6173C99.7253 84.5626 99.5635 84.5352 99.3857 84.5352C99.1624 84.5352 98.9642 84.5785 98.791 84.6651C98.6224 84.7517 98.4788 84.8907 98.3604 85.0821C98.2419 85.269 98.1507 85.5196 98.0869 85.8341C98.0277 86.144 97.998 86.5222 97.998 86.9688V89.2179C97.998 89.5779 98.0163 89.8946 98.0527 90.1681C98.0938 90.4415 98.153 90.6762 98.2305 90.8722C98.3125 91.0636 98.4082 91.2208 98.5176 91.3438C98.6315 91.4623 98.7614 91.5489 98.9072 91.6036C99.0576 91.6583 99.2217 91.6856 99.3994 91.6856C99.6182 91.6856 99.8118 91.6423 99.9805 91.5558C100.154 91.4646 100.299 91.3233 100.418 91.1319C100.541 90.936 100.632 90.6808 100.691 90.3663C100.751 90.0518 100.78 89.669 100.78 89.2179ZM114.186 91.4874V93.087H109.175V91.4874H114.186ZM109.838 83.1339V93.087H107.787V83.1339H109.838ZM118.253 83.1339V93.087H116.209V83.1339H118.253ZM121.315 83.1339V84.7403H113.194V83.1339H121.315ZM128.062 89.7852H130.106C130.065 90.4552 129.881 91.0499 129.553 91.5694C129.229 92.089 128.776 92.4946 128.192 92.7862C127.614 93.0779 126.916 93.2237 126.101 93.2237C125.463 93.2237 124.891 93.1143 124.385 92.8956C123.879 92.6723 123.446 92.3533 123.086 91.9386C122.73 91.5239 122.459 91.0226 122.272 90.4347C122.086 89.8468 121.992 89.1882 121.992 88.4591V87.7686C121.992 87.0395 122.088 86.381 122.279 85.7931C122.475 85.2006 122.753 84.697 123.113 84.2823C123.478 83.8676 123.913 83.5486 124.419 83.3253C124.925 83.102 125.49 82.9903 126.114 82.9903C126.944 82.9903 127.643 83.1407 128.213 83.4415C128.787 83.7423 129.231 84.157 129.546 84.6856C129.865 85.2143 130.056 85.8158 130.12 86.4903H128.069C128.047 86.0893 127.967 85.7498 127.83 85.4718C127.693 85.1892 127.486 84.9773 127.208 84.836C126.935 84.6902 126.57 84.6173 126.114 84.6173C125.772 84.6173 125.474 84.6811 125.219 84.8087C124.964 84.9363 124.749 85.13 124.576 85.3897C124.403 85.6495 124.273 85.9776 124.187 86.3741C124.104 86.766 124.063 87.2263 124.063 87.755V88.4591C124.063 88.974 124.102 89.4275 124.18 89.8194C124.257 90.2068 124.376 90.5349 124.535 90.8038C124.699 91.0681 124.909 91.2686 125.164 91.4054C125.424 91.5375 125.736 91.6036 126.101 91.6036C126.529 91.6036 126.882 91.5352 127.16 91.3985C127.438 91.2618 127.65 91.059 127.796 90.7901C127.946 90.5213 128.035 90.1863 128.062 89.7852Z" fill="#4F4F4F"/>
<path d="M32.375 25.4906H29.4922L29.4766 24.2797H32.0938C32.526 24.2797 32.9036 24.2067 33.2266 24.0609C33.5495 23.9151 33.7995 23.7067 33.9766 23.4359C34.1589 23.1599 34.25 22.8317 34.25 22.4515C34.25 22.0349 34.1693 21.6963 34.0078 21.4359C33.8516 21.1703 33.6094 20.9776 33.2812 20.8578C32.9583 20.7328 32.5469 20.6703 32.0469 20.6703H29.8281V30.8109H28.3203V19.4359H32.0469C32.6302 19.4359 33.151 19.4958 33.6094 19.6156C34.0677 19.7302 34.4557 19.9125 34.7734 20.1625C35.0964 20.4073 35.3411 20.7198 35.5078 21.1C35.6745 21.4802 35.7578 21.9359 35.7578 22.4672C35.7578 22.9359 35.638 23.3604 35.3984 23.7406C35.1589 24.1156 34.8255 24.4229 34.3984 24.6625C33.9766 24.9021 33.4818 25.0557 32.9141 25.1234L32.375 25.4906ZM32.3047 30.8109H28.8984L29.75 29.5844H32.3047C32.7839 29.5844 33.1901 29.501 33.5234 29.3344C33.862 29.1677 34.1198 28.9333 34.2969 28.6312C34.474 28.3239 34.5625 27.962 34.5625 27.5453C34.5625 27.1234 34.487 26.7588 34.3359 26.4515C34.1849 26.1442 33.9479 25.9073 33.625 25.7406C33.3021 25.5739 32.8854 25.4906 32.375 25.4906H30.2266L30.2422 24.2797H33.1797L33.5 24.7172C34.0469 24.764 34.5104 24.9203 34.8906 25.1859C35.2708 25.4463 35.5599 25.7797 35.7578 26.1859C35.9609 26.5922 36.0625 27.0401 36.0625 27.5297C36.0625 28.238 35.9062 28.837 35.5938 29.3265C35.2865 29.8109 34.8516 30.1807 34.2891 30.4359C33.7266 30.6859 33.0651 30.8109 32.3047 30.8109ZM39.6406 22.3578V30.8109H38.1875V22.3578H39.6406ZM38.0781 20.1156C38.0781 19.8812 38.1484 19.6833 38.2891 19.5219C38.4349 19.3604 38.6484 19.2797 38.9297 19.2797C39.2057 19.2797 39.4167 19.3604 39.5625 19.5219C39.7135 19.6833 39.7891 19.8812 39.7891 20.1156C39.7891 20.3396 39.7135 20.5323 39.5625 20.6937C39.4167 20.85 39.2057 20.9281 38.9297 20.9281C38.6484 20.9281 38.4349 20.85 38.2891 20.6937C38.1484 20.5323 38.0781 20.3396 38.0781 20.1156ZM45.5 22.3578V23.4672H40.9297V22.3578H45.5ZM42.4766 20.3031H43.9219V28.7172C43.9219 29.0036 43.9661 29.2198 44.0547 29.3656C44.1432 29.5114 44.2578 29.6078 44.3984 29.6547C44.5391 29.7015 44.6901 29.725 44.8516 29.725C44.9714 29.725 45.0964 29.7146 45.2266 29.6937C45.362 29.6677 45.4635 29.6469 45.5312 29.6312L45.5391 30.8109C45.4245 30.8474 45.2734 30.8812 45.0859 30.9125C44.9036 30.9489 44.6823 30.9672 44.4219 30.9672C44.0677 30.9672 43.7422 30.8969 43.4453 30.7562C43.1484 30.6156 42.9115 30.3812 42.7344 30.0531C42.5625 29.7198 42.4766 29.2719 42.4766 28.7094V20.3031ZM50.5781 29.7797C50.9219 29.7797 51.2396 29.7094 51.5312 29.5687C51.8229 29.4281 52.0625 29.2354 52.25 28.9906C52.4375 28.7406 52.5443 28.4567 52.5703 28.139H53.9453C53.9193 28.639 53.75 29.1052 53.4375 29.5375C53.1302 29.9646 52.7266 30.3109 52.2266 30.5765C51.7266 30.837 51.1771 30.9672 50.5781 30.9672C49.9427 30.9672 49.388 30.8552 48.9141 30.6312C48.4453 30.4073 48.0547 30.1 47.7422 29.7094C47.4349 29.3187 47.2031 28.8708 47.0469 28.3656C46.8958 27.8552 46.8203 27.3161 46.8203 26.7484V26.4203C46.8203 25.8526 46.8958 25.3161 47.0469 24.8109C47.2031 24.3005 47.4349 23.85 47.7422 23.4594C48.0547 23.0687 48.4453 22.7614 48.9141 22.5375C49.388 22.3135 49.9427 22.2015 50.5781 22.2015C51.2396 22.2015 51.8177 22.337 52.3125 22.6078C52.8073 22.8734 53.1953 23.238 53.4766 23.7015C53.763 24.1599 53.9193 24.6807 53.9453 25.264H52.5703C52.5443 24.9151 52.4453 24.6 52.2734 24.3187C52.1068 24.0375 51.8776 23.8135 51.5859 23.6469C51.2995 23.475 50.9635 23.389 50.5781 23.389C50.1354 23.389 49.763 23.4776 49.4609 23.6547C49.1641 23.8265 48.9271 24.0609 48.75 24.3578C48.5781 24.6495 48.4531 24.975 48.375 25.3344C48.3021 25.6885 48.2656 26.0505 48.2656 26.4203V26.7484C48.2656 27.1182 48.3021 27.4828 48.375 27.8422C48.4479 28.2015 48.5703 28.5271 48.7422 28.8187C48.9193 29.1104 49.1562 29.3448 49.4531 29.5219C49.7552 29.6937 50.1302 29.7797 50.5781 29.7797ZM55.1875 26.6781V26.4984C55.1875 25.889 55.276 25.3239 55.4531 24.8031C55.6302 24.2771 55.8854 23.8213 56.2188 23.4359C56.5521 23.0453 56.9557 22.7432 57.4297 22.5297C57.9036 22.3109 58.4349 22.2015 59.0234 22.2015C59.6172 22.2015 60.151 22.3109 60.625 22.5297C61.1042 22.7432 61.5104 23.0453 61.8438 23.4359C62.1823 23.8213 62.4401 24.2771 62.6172 24.8031C62.7943 25.3239 62.8828 25.889 62.8828 26.4984V26.6781C62.8828 27.2875 62.7943 27.8526 62.6172 28.3734C62.4401 28.8942 62.1823 29.35 61.8438 29.7406C61.5104 30.126 61.1068 30.4281 60.6328 30.6469C60.1641 30.8604 59.6328 30.9672 59.0391 30.9672C58.4453 30.9672 57.9115 30.8604 57.4375 30.6469C56.9635 30.4281 56.5573 30.126 56.2188 29.7406C55.8854 29.35 55.6302 28.8942 55.4531 28.3734C55.276 27.8526 55.1875 27.2875 55.1875 26.6781ZM56.6328 26.4984V26.6781C56.6328 27.1 56.6823 27.4984 56.7812 27.8734C56.8802 28.2432 57.0286 28.5713 57.2266 28.8578C57.4297 29.1442 57.6823 29.3708 57.9844 29.5375C58.2865 29.6989 58.638 29.7797 59.0391 29.7797C59.4349 29.7797 59.7812 29.6989 60.0781 29.5375C60.3802 29.3708 60.6302 29.1442 60.8281 28.8578C61.026 28.5713 61.1745 28.2432 61.2734 27.8734C61.3776 27.4984 61.4297 27.1 61.4297 26.6781V26.4984C61.4297 26.0817 61.3776 25.6885 61.2734 25.3187C61.1745 24.9437 61.0234 24.613 60.8203 24.3265C60.6224 24.0349 60.3724 23.8057 60.0703 23.639C59.7734 23.4724 59.4245 23.389 59.0234 23.389C58.6276 23.389 58.2786 23.4724 57.9766 23.639C57.6797 23.8057 57.4297 24.0349 57.2266 24.3265C57.0286 24.613 56.8802 24.9437 56.7812 25.3187C56.6823 25.6885 56.6328 26.0817 56.6328 26.4984ZM66.2656 22.3578V30.8109H64.8125V22.3578H66.2656ZM64.7031 20.1156C64.7031 19.8812 64.7734 19.6833 64.9141 19.5219C65.0599 19.3604 65.2734 19.2797 65.5547 19.2797C65.8307 19.2797 66.0417 19.3604 66.1875 19.5219C66.3385 19.6833 66.4141 19.8812 66.4141 20.1156C66.4141 20.3396 66.3385 20.5323 66.1875 20.6937C66.0417 20.85 65.8307 20.9281 65.5547 20.9281C65.2734 20.9281 65.0599 20.85 64.9141 20.6937C64.7734 20.5323 64.7031 20.3396 64.7031 20.1156ZM70.0312 24.1625V30.8109H68.5859V22.3578H69.9531L70.0312 24.1625ZM69.6875 26.264L69.0859 26.2406C69.0911 25.6625 69.1771 25.1286 69.3438 24.639C69.5104 24.1442 69.7448 23.7146 70.0469 23.35C70.349 22.9854 70.7083 22.7041 71.125 22.5062C71.5469 22.3031 72.013 22.2015 72.5234 22.2015C72.9401 22.2015 73.3151 22.2588 73.6484 22.3734C73.9818 22.4828 74.2656 22.6599 74.5 22.9047C74.7396 23.1495 74.9219 23.4672 75.0469 23.8578C75.1719 24.2432 75.2344 24.7146 75.2344 25.2719V30.8109H73.7812V25.2562C73.7812 24.8135 73.7161 24.4594 73.5859 24.1937C73.4557 23.9229 73.2656 23.7276 73.0156 23.6078C72.7656 23.4828 72.4583 23.4203 72.0938 23.4203C71.7344 23.4203 71.4062 23.4958 71.1094 23.6469C70.8177 23.7979 70.5651 24.0062 70.3516 24.2719C70.1432 24.5375 69.9792 24.8422 69.8594 25.1859C69.7448 25.5245 69.6875 25.8838 69.6875 26.264Z" fill="black"/>
<path d="M89.6406 25.4906H86.7578L86.7422 24.2797H89.3594C89.7917 24.2797 90.1693 24.2067 90.4922 24.0609C90.8151 23.9151 91.0651 23.7067 91.2422 23.4359C91.4245 23.1599 91.5156 22.8317 91.5156 22.4515C91.5156 22.0349 91.4349 21.6963 91.2734 21.4359C91.1172 21.1703 90.875 20.9776 90.5469 20.8578C90.224 20.7328 89.8125 20.6703 89.3125 20.6703H87.0938V30.8109H85.5859V19.4359H89.3125C89.8958 19.4359 90.4167 19.4958 90.875 19.6156C91.3333 19.7302 91.7214 19.9125 92.0391 20.1625C92.362 20.4073 92.6068 20.7198 92.7734 21.1C92.9401 21.4802 93.0234 21.9359 93.0234 22.4672C93.0234 22.9359 92.9036 23.3604 92.6641 23.7406C92.4245 24.1156 92.0911 24.4229 91.6641 24.6625C91.2422 24.9021 90.7474 25.0557 90.1797 25.1234L89.6406 25.4906ZM89.5703 30.8109H86.1641L87.0156 29.5844H89.5703C90.0495 29.5844 90.4557 29.501 90.7891 29.3344C91.1276 29.1677 91.3854 28.9333 91.5625 28.6312C91.7396 28.3239 91.8281 27.962 91.8281 27.5453C91.8281 27.1234 91.7526 26.7588 91.6016 26.4515C91.4505 26.1442 91.2135 25.9073 90.8906 25.7406C90.5677 25.5739 90.151 25.4906 89.6406 25.4906H87.4922L87.5078 24.2797H90.4453L90.7656 24.7172C91.3125 24.764 91.776 24.9203 92.1562 25.1859C92.5365 25.4463 92.8255 25.7797 93.0234 26.1859C93.2266 26.5922 93.3281 27.0401 93.3281 27.5297C93.3281 28.238 93.1719 28.837 92.8594 29.3265C92.5521 29.8109 92.1172 30.1807 91.5547 30.4359C90.9922 30.6859 90.3307 30.8109 89.5703 30.8109ZM99.5391 19.4359V30.8109H98.0547V19.4359H99.5391ZM103.195 19.4359V20.6703H94.4062V19.4359H103.195ZM111.531 27.1937H113.031C112.953 27.9125 112.747 28.5557 112.414 29.1234C112.081 29.6911 111.609 30.1416 111 30.475C110.391 30.8031 109.63 30.9672 108.719 30.9672C108.052 30.9672 107.445 30.8422 106.898 30.5922C106.357 30.3422 105.891 29.988 105.5 29.5297C105.109 29.0661 104.807 28.5114 104.594 27.8656C104.385 27.2146 104.281 26.4906 104.281 25.6937V24.5609C104.281 23.764 104.385 23.0427 104.594 22.3969C104.807 21.7458 105.112 21.1885 105.508 20.725C105.909 20.2614 106.391 19.9047 106.953 19.6547C107.516 19.4047 108.148 19.2797 108.852 19.2797C109.711 19.2797 110.438 19.4411 111.031 19.764C111.625 20.087 112.086 20.5349 112.414 21.1078C112.747 21.6755 112.953 22.3344 113.031 23.0844H111.531C111.458 22.5531 111.323 22.0974 111.125 21.7172C110.927 21.3317 110.646 21.0349 110.281 20.8265C109.917 20.6182 109.44 20.514 108.852 20.514C108.346 20.514 107.901 20.6104 107.516 20.8031C107.135 20.9958 106.815 21.2692 106.555 21.6234C106.299 21.9776 106.107 22.4021 105.977 22.8969C105.846 23.3916 105.781 23.9411 105.781 24.5453V25.6937C105.781 26.251 105.839 26.7745 105.953 27.264C106.073 27.7536 106.253 28.1833 106.492 28.5531C106.732 28.9229 107.036 29.2146 107.406 29.4281C107.776 29.6364 108.214 29.7406 108.719 29.7406C109.359 29.7406 109.87 29.639 110.25 29.4359C110.63 29.2328 110.917 28.9411 111.109 28.5609C111.307 28.1807 111.448 27.725 111.531 27.1937Z" fill="#828282"/>
<path d="M37.7061 55.4307C37.703 55.3846 37.7192 55.3392 37.7511 55.3045L39.1932 53.7343C39.2251 53.6996 39.2701 53.6784 39.3183 53.6755C39.3667 53.6725 39.4139 53.688 39.4502 53.7185C40.1128 54.2759 40.6629 54.9334 41.0851 55.6725C41.1082 55.7131 41.1137 55.7608 41.1001 55.8051C41.0865 55.8494 41.0551 55.8868 41.0127 55.9089L39.0959 56.9117C39.0682 56.9262 39.0383 56.933 39.0087 56.933C38.9444 56.933 38.8819 56.9003 38.8489 56.8424C38.5698 56.3538 38.206 55.9191 37.7676 55.5504C37.7313 55.5199 37.7092 55.4769 37.7061 55.4307Z" fill="#828282"/>
<path d="M37.0624 54.8494C37.0297 54.9084 36.9666 54.942 36.9014 54.942C36.8726 54.942 36.8434 54.9354 36.8162 54.9217C36.3025 54.6609 35.7498 54.4907 35.1735 54.4159C35.0739 54.403 35.004 54.3152 35.0176 54.2199L35.3112 52.1482C35.3247 52.0529 35.4166 51.9862 35.516 51.999C36.3912 52.1126 37.2304 52.371 38.0104 52.7669C38.0992 52.812 38.133 52.9174 38.086 53.0024L37.0624 54.8494Z" fill="#828282"/>
<path d="M39.4072 57.6526L41.5155 57.1052C41.5621 57.0932 41.6118 57.0992 41.6537 57.1222C41.6956 57.1452 41.7262 57.1832 41.7388 57.2277C41.9121 57.8391 42 58.4728 42 59.1111C42 59.2204 41.9973 59.33 41.9916 59.4462C41.9871 59.5396 41.9066 59.6123 41.8099 59.6123C41.8071 59.6123 41.8042 59.6123 41.8013 59.6121L39.6192 59.5157C39.571 59.5136 39.5256 59.4932 39.4931 59.459C39.4606 59.4249 39.4435 59.3797 39.4458 59.3336C39.4496 59.2552 39.4514 59.1824 39.4514 59.1111C39.4514 58.6884 39.3935 58.2697 39.2792 57.8664C39.2529 57.7735 39.3102 57.6779 39.4072 57.6526Z" fill="#828282"/>
<path d="M31.2469 52.6423C32.0413 52.2758 32.89 52.0487 33.7696 51.9671C33.8179 51.9624 33.8656 51.9767 33.9029 52.006C33.9401 52.0354 33.9637 52.0777 33.9683 52.1237L34.1789 54.2046C34.1887 54.3003 34.1154 54.3855 34.0153 54.3948C33.4356 54.4485 32.8765 54.5981 32.3535 54.8394C32.3287 54.8509 32.3016 54.8567 32.2745 54.8567C32.2542 54.8567 32.234 54.8534 32.2144 54.8469C32.1689 54.8317 32.1315 54.7997 32.1105 54.7581L31.162 52.8749C31.1183 52.7882 31.1563 52.6841 31.2469 52.6423Z" fill="#828282"/>
<path d="M28.0383 55.5648C28.0266 55.52 28.0338 55.4726 28.0586 55.4329C28.5104 54.7096 29.0864 54.0728 29.7706 53.5403C29.8081 53.5111 29.8559 53.4975 29.9041 53.5021C29.9521 53.5069 29.9962 53.5296 30.0267 53.5655L31.405 55.1874C31.4354 55.2232 31.4498 55.2692 31.4448 55.3151C31.4399 55.3611 31.4161 55.4033 31.3786 55.4325C30.9259 55.7848 30.5449 56.206 30.2461 56.6843C30.212 56.7389 30.1517 56.7692 30.0897 56.7692C30.0579 56.7692 30.0257 56.7612 29.9965 56.7445L28.1215 55.6718C28.0801 55.6481 28.0502 55.6096 28.0383 55.5648Z" fill="#828282"/>
<path d="M27.3419 56.9629C27.372 56.8711 27.4742 56.8199 27.5701 56.8487L29.6546 57.4738C29.7505 57.5026 29.8039 57.6003 29.7739 57.6921C29.6242 58.1492 29.5484 58.6266 29.5484 59.1111C29.5484 59.1824 29.5503 59.2552 29.554 59.3336C29.5563 59.3797 29.5393 59.4248 29.5067 59.459C29.4742 59.4931 29.4288 59.5135 29.3806 59.5156L27.1985 59.6121C27.1956 59.6122 27.1928 59.6123 27.1899 59.6123C27.0933 59.6123 27.0128 59.5395 27.0082 59.4461C27.0026 59.3299 26.9998 59.2203 26.9998 59.1111C26.9999 58.3789 27.1149 57.6562 27.3419 56.9629Z" fill="#828282"/>
<path d="M34.5063 58.7413C34.5377 58.7413 34.569 58.7423 34.6001 58.7439L37.5572 57.0741C37.6295 57.0332 37.7214 57.0434 37.7821 57.0991C37.8427 57.1547 37.8573 57.2421 37.8177 57.313L36.2046 60.2065C36.2106 60.2623 36.2137 60.3185 36.2137 60.3753C36.2137 60.8118 36.0361 61.2221 35.7137 61.5307C35.3912 61.8394 34.9624 62.0093 34.5063 62.0093C34.0502 62.0093 33.6215 61.8393 33.299 61.5307C32.9765 61.2221 32.7989 60.8118 32.7989 60.3753C32.7989 59.9388 32.9765 59.5285 33.299 59.2199C33.6215 58.9113 34.0503 58.7413 34.5063 58.7413Z" fill="#828282"/>
<path d="M169 78.9345C170.685 76.0792 171.282 74.3106 172.448 77.8532C172.924 79.2998 173.062 81.8322 173.645 82.8439C175.203 85.5508 175.222 90.6706 176.757 86.0047C177.901 82.5276 179.547 87.1322 181.282 86.4621C184.035 85.3994 184.888 87.9894 186.669 90.9122C187.718 92.6321 189.667 96.2865 190.979 96.1524C192.706 95.976 193.233 89.6331 195.097 88.708C196.138 88.1913 196.946 90.1442 197.874 89.2486C198.434 88.709 198.464 86.7164 198.976 86.4621C199.807 86.0497 199.368 87.8346 199.814 87.8346C201.037 87.8346 200.938 86.5218 201.849 88.5C202.7 90.347 203.982 89.2871 204.77 87.9178C206.038 85.7144 207.928 85.0293 209.319 83.0518C210.545 81.3091 213.215 78.5625 214.778 78.0195C216.21 77.5219 216.929 80.3485 217.962 80.3485C218.818 80.3485 221.049 78.2107 221.577 77.063C222.404 75.2676 223.595 78.4469 224.379 78.1443C225.606 77.6704 226.831 73.5512 227.707 72.0307C228.545 70.5748 230.413 65.5428 231.705 65.5428C232.091 65.5428 234.69 67.8544 235.033 68.2877C236.23 69.8001 237.912 72.3681 239.247 73.5279C241.572 75.547 243.92 68.8357 245.879 67.7886C247.158 67.1049 246.529 72.0693 248.297 70.5335C248.997 69.9255 249.374 68.7605 250.212 68.4956C251.388 68.1244 251.581 70.9928 252.415 71.4069C254.295 72.3399 256.564 68.1153 257.826 66.1666C258.595 64.9794 261.815 60.1872 262.95 62.0493C263.949 63.6894 265.071 66.217 266.182 63.2138C267.402 59.9164 270.127 56.606 272 54.9792" stroke="url(#paint0_linear_2054_25)" stroke-width="1.5" stroke-linecap="round" stroke-linejoin="round"/>
<defs>
<filter id="filter0_d_2054_25" x="0" y="0.746246" width="298" height="121.487" filterUnits="userSpaceOnUse" color-interpolation-filters="sRGB">
<feFlood flood-opacity="0" result="BackgroundImageFix"/>
<feColorMatrix in="SourceAlpha" type="matrix" values="0 0 0 0 0 0 0 0 0 0 0 0 0 0 0 0 0 0 127 0" result="hardAlpha"/>
<feOffset dy="4"/>
<feGaussianBlur stdDeviation="2"/>
<feColorMatrix type="matrix" values="0 0 0 0 0 0 0 0 0 0 0 0 0 0 0 0 0 0 0.03 0"/>
<feBlend mode="normal" in2="BackgroundImageFix" result="effect1_dropShadow_2054_25"/>
<feBlend mode="normal" in="SourceGraphic" in2="effect1_dropShadow_2054_25" result="shape"/>
</filter>
<linearGradient id="paint0_linear_2054_25" x1="165.5" y1="78.5805" x2="272.011" y2="67.1288" gradientUnits="userSpaceOnUse">
<stop stop-color="#2D9CDB"/>
<stop offset="1" stop-color="#255F80"/>
</linearGradient>
</defs>
</svg>
