<svg width="307" height="135" viewBox="0 0 307 135" fill="none" xmlns="http://www.w3.org/2000/svg">
<g filter="url(#filter0_d_2074_32)">
<rect x="7" y="2.74625" width="290" height="113.487" rx="5" fill="white"/>
<rect x="8" y="3.74625" width="288" height="111.487" rx="4" stroke="#F2AE4B" stroke-width="2"/>
</g>
<path d="M268.461 30.11H267.008C267.013 29.61 267.057 29.2011 267.141 28.8834C267.229 28.5605 267.373 28.2662 267.57 28.0006C267.768 27.735 268.031 27.4329 268.36 27.0943C268.599 26.8495 268.818 26.6204 269.016 26.4068C269.219 26.1881 269.383 25.9537 269.508 25.7037C269.633 25.4485 269.695 25.1438 269.695 24.7896C269.695 24.4303 269.63 24.1204 269.5 23.86C269.375 23.5995 269.188 23.399 268.938 23.2584C268.693 23.1178 268.388 23.0475 268.024 23.0475C267.722 23.0475 267.435 23.1021 267.164 23.2115C266.893 23.3209 266.675 23.4902 266.508 23.7193C266.341 23.9433 266.255 24.2376 266.25 24.6021H264.805C264.815 24.0136 264.961 23.5084 265.242 23.0865C265.529 22.6646 265.914 22.3417 266.399 22.1178C266.883 21.8938 267.425 21.7818 268.024 21.7818C268.685 21.7818 269.248 21.9016 269.711 22.1412C270.18 22.3808 270.537 22.7245 270.781 23.1725C271.026 23.6152 271.149 24.1412 271.149 24.7506C271.149 25.2193 271.052 25.6516 270.86 26.0475C270.672 26.4381 270.43 26.8053 270.133 27.149C269.836 27.4928 269.521 27.8209 269.188 28.1334C268.901 28.399 268.708 28.6985 268.61 29.0318C268.511 29.3652 268.461 29.7245 268.461 30.11ZM266.945 32.5865C266.945 32.3521 267.018 32.1542 267.164 31.9928C267.31 31.8313 267.521 31.7506 267.797 31.7506C268.078 31.7506 268.292 31.8313 268.438 31.9928C268.583 32.1542 268.656 32.3521 268.656 32.5865C268.656 32.8105 268.583 33.0032 268.438 33.1646C268.292 33.3261 268.078 33.4068 267.797 33.4068C267.521 33.4068 267.31 33.3261 267.164 33.1646C267.018 33.0032 266.945 32.8105 266.945 32.5865Z" fill="#828282"/>
<path d="M277.5 27.854C277.5 33.1266 273.245 37.3972 268 37.3972C262.755 37.3972 258.5 33.1266 258.5 27.854C258.5 22.5815 262.755 18.3109 268 18.3109C273.245 18.3109 277.5 22.5815 277.5 27.854Z" stroke="#929292"/>
<path d="M54.3984 50.834V67.9317H51.0234V54.7247L46.9688 56.0137V53.3536L54.0352 50.834H54.3984ZM60.2578 66.3028C60.2578 65.8028 60.4297 65.3848 60.7734 65.0489C61.125 64.713 61.5898 64.545 62.168 64.545C62.7461 64.545 63.207 64.713 63.5508 65.0489C63.9023 65.3848 64.0781 65.8028 64.0781 66.3028C64.0781 66.8028 63.9023 67.2208 63.5508 67.5567C63.207 67.8926 62.7461 68.0606 62.168 68.0606C61.5898 68.0606 61.125 67.8926 60.7734 67.5567C60.4297 67.2208 60.2578 66.8028 60.2578 66.3028ZM78.5859 65.295V67.9317H66.9141V65.6817L72.4336 59.7637C72.9883 59.1465 73.4258 58.6036 73.7461 58.1348C74.0664 57.6583 74.2969 57.2325 74.4375 56.8575C74.5859 56.4747 74.6602 56.1114 74.6602 55.7676C74.6602 55.252 74.5742 54.8106 74.4023 54.4434C74.2305 54.0684 73.9766 53.7794 73.6406 53.5762C73.3125 53.3731 72.9062 53.2715 72.4219 53.2715C71.9062 53.2715 71.4609 53.3965 71.0859 53.6465C70.7188 53.8965 70.4375 54.2442 70.2422 54.6895C70.0547 55.1348 69.9609 55.6387 69.9609 56.2012H66.5742C66.5742 55.1856 66.8164 54.2559 67.3008 53.4122C67.7852 52.5606 68.4688 51.8848 69.3516 51.3848C70.2344 50.877 71.2812 50.6231 72.4922 50.6231C73.6875 50.6231 74.6953 50.8184 75.5156 51.209C76.3438 51.5919 76.9688 52.1465 77.3906 52.8731C77.8203 53.5919 78.0352 54.4512 78.0352 55.4512C78.0352 56.0137 77.9453 56.5645 77.7656 57.1036C77.5859 57.6348 77.3281 58.1661 76.9922 58.6973C76.6641 59.2208 76.2656 59.752 75.7969 60.2911C75.3281 60.8301 74.8086 61.3887 74.2383 61.9669L71.2734 65.295H78.5859ZM92.6484 61.5567V64.2051H80.3555L80.1914 62.1544L87.3047 50.8692H89.9883L87.082 55.7325L83.543 61.5567H92.6484ZM90.7148 50.8692V67.9317H87.3398V50.8692H90.7148ZM97.6523 60.1622L94.957 59.5176L95.9297 50.8692H105.516V53.5997H98.707L98.2852 57.3848C98.5117 57.252 98.8555 57.1114 99.3164 56.963C99.7773 56.8067 100.293 56.7286 100.863 56.7286C101.691 56.7286 102.426 56.8575 103.066 57.1153C103.707 57.3731 104.25 57.7481 104.695 58.2403C105.148 58.7325 105.492 59.334 105.727 60.045C105.961 60.7559 106.078 61.5606 106.078 62.459C106.078 63.2169 105.961 63.9395 105.727 64.627C105.492 65.3067 105.137 65.9161 104.66 66.4551C104.184 66.9864 103.586 67.4044 102.867 67.709C102.148 68.0137 101.297 68.1661 100.312 68.1661C99.5781 68.1661 98.8672 68.0567 98.1797 67.838C97.5 67.6192 96.8867 67.295 96.3398 66.8653C95.8008 66.4356 95.3672 65.9161 95.0391 65.3067C94.7188 64.6895 94.5508 63.9864 94.5352 63.1973H97.8867C97.9336 63.6817 98.0586 64.0997 98.2617 64.4512C98.4727 64.795 98.75 65.0606 99.0938 65.2481C99.4375 65.4356 99.8398 65.5294 100.301 65.5294C100.73 65.5294 101.098 65.4473 101.402 65.2833C101.707 65.1192 101.953 64.8926 102.141 64.6036C102.328 64.3067 102.465 63.963 102.551 63.5723C102.645 63.1739 102.691 62.7442 102.691 62.2833C102.691 61.8223 102.637 61.4044 102.527 61.0294C102.418 60.6544 102.25 60.3301 102.023 60.0567C101.797 59.7833 101.508 59.5723 101.156 59.4239C100.812 59.2755 100.41 59.2012 99.9492 59.2012C99.3242 59.2012 98.8398 59.2989 98.4961 59.4942C98.1602 59.6895 97.8789 59.9122 97.6523 60.1622ZM119.742 57.9005V60.8536C119.742 62.1348 119.605 63.2403 119.332 64.17C119.059 65.0919 118.664 65.8497 118.148 66.4434C117.641 67.0294 117.035 67.463 116.332 67.7442C115.629 68.0255 114.848 68.1661 113.988 68.1661C113.301 68.1661 112.66 68.0801 112.066 67.9083C111.473 67.7286 110.938 67.4512 110.461 67.0762C109.992 66.7012 109.586 66.2286 109.242 65.6583C108.906 65.0801 108.648 64.3926 108.469 63.5958C108.289 62.7989 108.199 61.8848 108.199 60.8536V57.9005C108.199 56.6192 108.336 55.5215 108.609 54.6075C108.891 53.6856 109.285 52.9317 109.793 52.3458C110.309 51.7598 110.918 51.3301 111.621 51.0567C112.324 50.7755 113.105 50.6348 113.965 50.6348C114.652 50.6348 115.289 50.7247 115.875 50.9044C116.469 51.0762 117.004 51.3458 117.48 51.713C117.957 52.0801 118.363 52.5528 118.699 53.1309C119.035 53.7012 119.293 54.3848 119.473 55.1817C119.652 55.9708 119.742 56.877 119.742 57.9005ZM116.355 61.2989V57.4434C116.355 56.8262 116.32 56.2872 116.25 55.8262C116.188 55.3653 116.09 54.9747 115.957 54.6544C115.824 54.3262 115.66 54.0606 115.465 53.8575C115.27 53.6544 115.047 53.5059 114.797 53.4122C114.547 53.3184 114.27 53.2715 113.965 53.2715C113.582 53.2715 113.242 53.3458 112.945 53.4942C112.656 53.6426 112.41 53.8809 112.207 54.209C112.004 54.5294 111.848 54.959 111.738 55.4981C111.637 56.0294 111.586 56.6778 111.586 57.4434V61.2989C111.586 61.9161 111.617 62.459 111.68 62.9278C111.75 63.3965 111.852 63.7989 111.984 64.1348C112.125 64.463 112.289 64.7325 112.477 64.9434C112.672 65.1465 112.895 65.295 113.145 65.3887C113.402 65.4825 113.684 65.5294 113.988 65.5294C114.363 65.5294 114.695 65.4551 114.984 65.3067C115.281 65.1505 115.531 64.9083 115.734 64.5801C115.945 64.2442 116.102 63.8067 116.203 63.2676C116.305 62.7286 116.355 62.0723 116.355 61.2989ZM133.523 57.9005V60.8536C133.523 62.1348 133.387 63.2403 133.113 64.17C132.84 65.0919 132.445 65.8497 131.93 66.4434C131.422 67.0294 130.816 67.463 130.113 67.7442C129.41 68.0255 128.629 68.1661 127.77 68.1661C127.082 68.1661 126.441 68.0801 125.848 67.9083C125.254 67.7286 124.719 67.4512 124.242 67.0762C123.773 66.7012 123.367 66.2286 123.023 65.6583C122.688 65.0801 122.43 64.3926 122.25 63.5958C122.07 62.7989 121.98 61.8848 121.98 60.8536V57.9005C121.98 56.6192 122.117 55.5215 122.391 54.6075C122.672 53.6856 123.066 52.9317 123.574 52.3458C124.09 51.7598 124.699 51.3301 125.402 51.0567C126.105 50.7755 126.887 50.6348 127.746 50.6348C128.434 50.6348 129.07 50.7247 129.656 50.9044C130.25 51.0762 130.785 51.3458 131.262 51.713C131.738 52.0801 132.145 52.5528 132.48 53.1309C132.816 53.7012 133.074 54.3848 133.254 55.1817C133.434 55.9708 133.523 56.877 133.523 57.9005ZM130.137 61.2989V57.4434C130.137 56.8262 130.102 56.2872 130.031 55.8262C129.969 55.3653 129.871 54.9747 129.738 54.6544C129.605 54.3262 129.441 54.0606 129.246 53.8575C129.051 53.6544 128.828 53.5059 128.578 53.4122C128.328 53.3184 128.051 53.2715 127.746 53.2715C127.363 53.2715 127.023 53.3458 126.727 53.4942C126.438 53.6426 126.191 53.8809 125.988 54.209C125.785 54.5294 125.629 54.959 125.52 55.4981C125.418 56.0294 125.367 56.6778 125.367 57.4434V61.2989C125.367 61.9161 125.398 62.459 125.461 62.9278C125.531 63.3965 125.633 63.7989 125.766 64.1348C125.906 64.463 126.07 64.7325 126.258 64.9434C126.453 65.1465 126.676 65.295 126.926 65.3887C127.184 65.4825 127.465 65.5294 127.77 65.5294C128.145 65.5294 128.477 65.4551 128.766 65.3067C129.062 65.1505 129.312 64.9083 129.516 64.5801C129.727 64.2442 129.883 63.8067 129.984 63.2676C130.086 62.7286 130.137 62.0723 130.137 61.2989ZM147.316 63.2559C147.316 64.3262 147.066 65.2286 146.566 65.963C146.066 66.6895 145.379 67.2403 144.504 67.6153C143.637 67.9825 142.652 68.1661 141.551 68.1661C140.449 68.1661 139.461 67.9825 138.586 67.6153C137.711 67.2403 137.02 66.6895 136.512 65.963C136.004 65.2286 135.75 64.3262 135.75 63.2559C135.75 62.5372 135.895 61.8887 136.184 61.3106C136.473 60.7247 136.875 60.2247 137.391 59.8106C137.914 59.3887 138.527 59.0684 139.23 58.8497C139.934 58.6231 140.699 58.5098 141.527 58.5098C142.637 58.5098 143.629 58.7051 144.504 59.0958C145.379 59.4864 146.066 60.0372 146.566 60.7481C147.066 61.459 147.316 62.295 147.316 63.2559ZM143.918 63.0333C143.918 62.5098 143.816 62.0606 143.613 61.6856C143.418 61.3028 143.141 61.0098 142.781 60.8067C142.422 60.6036 142.004 60.502 141.527 60.502C141.051 60.502 140.633 60.6036 140.273 60.8067C139.914 61.0098 139.633 61.3028 139.43 61.6856C139.234 62.0606 139.137 62.5098 139.137 63.0333C139.137 63.5489 139.234 63.9942 139.43 64.3692C139.633 64.7442 139.914 65.0333 140.273 65.2364C140.641 65.4317 141.066 65.5294 141.551 65.5294C142.035 65.5294 142.453 65.4317 142.805 65.2364C143.164 65.0333 143.438 64.7442 143.625 64.3692C143.82 63.9942 143.918 63.5489 143.918 63.0333ZM146.953 55.3926C146.953 56.2598 146.723 57.0294 146.262 57.7012C145.801 58.3653 145.16 58.8848 144.34 59.2598C143.527 59.6348 142.598 59.8223 141.551 59.8223C140.496 59.8223 139.559 59.6348 138.738 59.2598C137.918 58.8848 137.277 58.3653 136.816 57.7012C136.355 57.0294 136.125 56.2598 136.125 55.3926C136.125 54.3614 136.355 53.4942 136.816 52.7911C137.285 52.0801 137.926 51.5411 138.738 51.1739C139.559 50.8067 140.488 50.6231 141.527 50.6231C142.582 50.6231 143.516 50.8067 144.328 51.1739C145.148 51.5411 145.789 52.0801 146.25 52.7911C146.719 53.4942 146.953 54.3614 146.953 55.3926ZM143.578 55.545C143.578 55.084 143.496 54.6856 143.332 54.3497C143.168 54.0059 142.934 53.7403 142.629 53.5528C142.332 53.3653 141.965 53.2715 141.527 53.2715C141.105 53.2715 140.742 53.3614 140.438 53.5411C140.141 53.7208 139.91 53.9825 139.746 54.3262C139.59 54.6622 139.512 55.0684 139.512 55.545C139.512 56.0059 139.59 56.4122 139.746 56.7637C139.91 57.1075 140.145 57.377 140.449 57.5723C140.754 57.7676 141.121 57.8653 141.551 57.8653C141.98 57.8653 142.344 57.7676 142.641 57.5723C142.945 57.377 143.176 57.1075 143.332 56.7637C143.496 56.4122 143.578 56.0059 143.578 55.545ZM157.697 63.5635H155.141L155.127 62.1553H157.273C157.652 62.1553 157.962 62.1075 158.203 62.0118C158.445 61.9115 158.625 61.768 158.743 61.5811C158.866 61.3897 158.928 61.1573 158.928 60.8839C158.928 60.574 158.868 60.3233 158.75 60.1319C158.636 59.9405 158.456 59.8015 158.21 59.7149C157.968 59.6283 157.656 59.585 157.273 59.585H155.852V67.9317H153.801V57.9786H157.273C157.852 57.9786 158.369 58.0333 158.825 58.1426C159.285 58.252 159.675 58.4184 159.994 58.6417C160.313 58.865 160.557 59.1475 160.726 59.4893C160.894 59.8266 160.979 60.2276 160.979 60.6924C160.979 61.1026 160.885 61.4809 160.698 61.8272C160.516 62.1736 160.227 62.4561 159.83 62.6749C159.438 62.8936 158.925 63.0144 158.292 63.0372L157.697 63.5635ZM157.608 67.9317H154.58L155.38 66.3321H157.608C157.968 66.3321 158.262 66.2751 158.49 66.1612C158.718 66.0427 158.887 65.8832 158.996 65.6827C159.105 65.4822 159.16 65.252 159.16 64.9922C159.16 64.7006 159.11 64.4477 159.01 64.2335C158.914 64.0193 158.759 63.8552 158.545 63.7413C158.331 63.6228 158.048 63.5635 157.697 63.5635H155.722L155.735 62.1553H158.196L158.668 62.709C159.274 62.6999 159.762 62.807 160.131 63.0303C160.505 63.2491 160.776 63.5339 160.944 63.8848C161.118 64.2357 161.204 64.6117 161.204 65.0128C161.204 65.6508 161.065 66.1885 160.787 66.626C160.509 67.059 160.101 67.3848 159.563 67.6036C159.03 67.8223 158.379 67.9317 157.608 67.9317ZM167.001 57.9786V67.9317H164.957V57.9786H167.001ZM170.063 57.9786V59.585H161.942V57.9786H170.063ZM176.811 64.6299H178.854C178.813 65.2999 178.629 65.8946 178.301 66.4141C177.977 66.9337 177.524 67.3393 176.94 67.6309C176.362 67.9226 175.664 68.0684 174.849 68.0684C174.211 68.0684 173.639 67.959 173.133 67.7403C172.627 67.517 172.194 67.198 171.834 66.7833C171.479 66.3686 171.207 65.8672 171.021 65.2794C170.834 64.6915 170.74 64.0329 170.74 63.3038V62.6133C170.74 61.8842 170.836 61.2256 171.027 60.6378C171.223 60.0453 171.501 59.5417 171.861 59.127C172.226 58.7123 172.661 58.3933 173.167 58.17C173.673 57.9467 174.238 57.835 174.862 57.835C175.692 57.835 176.391 57.9854 176.961 58.2862C177.535 58.587 177.979 59.0017 178.294 59.5303C178.613 60.059 178.804 60.6605 178.868 61.335H176.817C176.795 60.934 176.715 60.5945 176.578 60.3165C176.441 60.0339 176.234 59.822 175.956 59.6807C175.683 59.5349 175.318 59.462 174.862 59.462C174.521 59.462 174.222 59.5258 173.967 59.6534C173.712 59.781 173.497 59.9747 173.324 60.2344C173.151 60.4942 173.021 60.8223 172.935 61.2188C172.853 61.6107 172.812 62.071 172.812 62.5997V63.3038C172.812 63.8187 172.85 64.2722 172.928 64.6641C173.005 65.0515 173.124 65.3796 173.283 65.6485C173.447 65.9128 173.657 66.1133 173.912 66.2501C174.172 66.3822 174.484 66.4483 174.849 66.4483C175.277 66.4483 175.63 66.3799 175.908 66.2432C176.186 66.1065 176.398 65.9037 176.544 65.6348C176.694 65.3659 176.783 65.031 176.811 64.6299Z" fill="black"/>
<path d="M40.1875 29.1937H41.6875C41.6094 29.9125 41.4036 30.5557 41.0703 31.1234C40.737 31.6911 40.2656 32.1416 39.6562 32.475C39.0469 32.8031 38.2865 32.9672 37.375 32.9672C36.7083 32.9672 36.1016 32.8422 35.5547 32.5922C35.013 32.3422 34.5469 31.988 34.1562 31.5297C33.7656 31.0661 33.4635 30.5114 33.25 29.8656C33.0417 29.2146 32.9375 28.4906 32.9375 27.6937V26.5609C32.9375 25.764 33.0417 25.0427 33.25 24.3969C33.4635 23.7458 33.7682 23.1885 34.1641 22.725C34.5651 22.2614 35.0469 21.9047 35.6094 21.6547C36.1719 21.4047 36.8047 21.2797 37.5078 21.2797C38.3672 21.2797 39.0938 21.4411 39.6875 21.764C40.2812 22.087 40.7422 22.5349 41.0703 23.1078C41.4036 23.6755 41.6094 24.3344 41.6875 25.0844H40.1875C40.1146 24.5531 39.9792 24.0974 39.7812 23.7172C39.5833 23.3317 39.3021 23.0349 38.9375 22.8265C38.5729 22.6182 38.0964 22.514 37.5078 22.514C37.0026 22.514 36.5573 22.6104 36.1719 22.8031C35.7917 22.9958 35.4714 23.2692 35.2109 23.6234C34.9557 23.9776 34.763 24.4021 34.6328 24.8969C34.5026 25.3916 34.4375 25.9411 34.4375 26.5453V27.6937C34.4375 28.251 34.4948 28.7745 34.6094 29.264C34.7292 29.7536 34.9089 30.1833 35.1484 30.5531C35.388 30.9229 35.6927 31.2146 36.0625 31.4281C36.4323 31.6364 36.8698 31.7406 37.375 31.7406C38.0156 31.7406 38.526 31.639 38.9062 31.4359C39.2865 31.2328 39.5729 30.9411 39.7656 30.5609C39.9635 30.1807 40.1042 29.725 40.1875 29.1937ZM45.8984 31.9359L48.25 24.3578H49.7969L46.4062 34.1156C46.3281 34.3239 46.224 34.5479 46.0938 34.7875C45.9688 35.0323 45.8073 35.264 45.6094 35.4828C45.4115 35.7015 45.1719 35.8786 44.8906 36.014C44.6146 36.1547 44.2839 36.225 43.8984 36.225C43.7839 36.225 43.638 36.2094 43.4609 36.1781C43.2839 36.1469 43.1589 36.1208 43.0859 36.1L43.0781 34.9281C43.1198 34.9333 43.1849 34.9385 43.2734 34.9437C43.3672 34.9541 43.4323 34.9594 43.4688 34.9594C43.7969 34.9594 44.0755 34.9151 44.3047 34.8265C44.5339 34.7432 44.7266 34.6 44.8828 34.3969C45.0443 34.1989 45.1823 33.9255 45.2969 33.5765L45.8984 31.9359ZM44.1719 24.3578L46.3672 30.9203L46.7422 32.4437L45.7031 32.975L42.5938 24.3578H44.1719ZM55.9609 30.889L58.8359 24.3578H60.2266L56.4609 32.8109H55.4609L51.7109 24.3578H53.1016L55.9609 30.889ZM52.6797 24.3578V32.8109H51.2344V24.3578H52.6797ZM59.1953 32.8109V24.3578H60.6484V32.8109H59.1953ZM67.8359 30.889L70.7109 24.3578H72.1016L68.3359 32.8109H67.3359L63.5859 24.3578H64.9766L67.8359 30.889ZM64.5547 24.3578V32.8109H63.1094V24.3578H64.5547ZM71.0703 32.8109V24.3578H72.5234V32.8109H71.0703ZM79.8359 31.3656V27.014C79.8359 26.6807 79.7682 26.3916 79.6328 26.1469C79.5026 25.8969 79.3047 25.7041 79.0391 25.5687C78.7734 25.4333 78.4453 25.3656 78.0547 25.3656C77.6901 25.3656 77.3698 25.4281 77.0938 25.5531C76.8229 25.6781 76.6094 25.8422 76.4531 26.0453C76.3021 26.2484 76.2266 26.4672 76.2266 26.7015H74.7812C74.7812 26.3995 74.8594 26.1 75.0156 25.8031C75.1719 25.5062 75.3958 25.238 75.6875 24.9984C75.9844 24.7536 76.3385 24.5609 76.75 24.4203C77.1667 24.2745 77.6302 24.2015 78.1406 24.2015C78.7552 24.2015 79.2969 24.3057 79.7656 24.514C80.2396 24.7224 80.6094 25.0375 80.875 25.4594C81.1458 25.876 81.2812 26.3995 81.2812 27.0297V30.9672C81.2812 31.2484 81.3047 31.5479 81.3516 31.8656C81.4036 32.1833 81.4792 32.4567 81.5781 32.6859V32.8109H80.0703C79.9974 32.6442 79.9401 32.4229 79.8984 32.1469C79.8568 31.8656 79.8359 31.6052 79.8359 31.3656ZM80.0859 27.6859L80.1016 28.7015H78.6406C78.2292 28.7015 77.862 28.7354 77.5391 28.8031C77.2161 28.8656 76.9453 28.962 76.7266 29.0922C76.5078 29.2224 76.3411 29.3864 76.2266 29.5844C76.112 29.7771 76.0547 30.0036 76.0547 30.264C76.0547 30.5297 76.1146 30.7719 76.2344 30.9906C76.3542 31.2094 76.5339 31.3838 76.7734 31.514C77.0182 31.639 77.3177 31.7015 77.6719 31.7015C78.1146 31.7015 78.5052 31.6078 78.8438 31.4203C79.1823 31.2328 79.4505 31.0036 79.6484 30.7328C79.8516 30.462 79.9609 30.1989 79.9766 29.9437L80.5938 30.639C80.5573 30.8578 80.4583 31.1 80.2969 31.3656C80.1354 31.6312 79.9193 31.8864 79.6484 32.1312C79.3828 32.3708 79.0651 32.5713 78.6953 32.7328C78.3307 32.889 77.9193 32.9672 77.4609 32.9672C76.888 32.9672 76.3854 32.8552 75.9531 32.6312C75.526 32.4073 75.1927 32.1078 74.9531 31.7328C74.7188 31.3526 74.6016 30.9281 74.6016 30.4594C74.6016 30.0062 74.6901 29.6078 74.8672 29.264C75.0443 28.9151 75.2995 28.626 75.6328 28.3969C75.9661 28.1625 76.3672 27.9854 76.8359 27.8656C77.3047 27.7458 77.8281 27.6859 78.4062 27.6859H80.0859ZM85 25.9828V36.0609H83.5469V24.3578H84.875L85 25.9828ZM90.6953 28.514V28.6781C90.6953 29.2927 90.6224 29.863 90.4766 30.389C90.3307 30.9099 90.1172 31.363 89.8359 31.7484C89.5599 32.1338 89.2188 32.4333 88.8125 32.6469C88.4062 32.8604 87.9401 32.9672 87.4141 32.9672C86.8776 32.9672 86.4036 32.8786 85.9922 32.7015C85.5807 32.5245 85.2318 32.2666 84.9453 31.9281C84.6589 31.5896 84.4297 31.1833 84.2578 30.7094C84.0911 30.2354 83.9766 29.7015 83.9141 29.1078V28.2328C83.9766 27.6078 84.0938 27.0479 84.2656 26.5531C84.4375 26.0583 84.6641 25.6364 84.9453 25.2875C85.2318 24.9333 85.5781 24.6651 85.9844 24.4828C86.3906 24.2953 86.8594 24.2015 87.3906 24.2015C87.9219 24.2015 88.3932 24.3057 88.8047 24.514C89.2161 24.7172 89.5625 25.0088 89.8438 25.389C90.125 25.7692 90.3359 26.225 90.4766 26.7562C90.6224 27.2823 90.6953 27.8682 90.6953 28.514ZM89.2422 28.6781V28.514C89.2422 28.0922 89.1979 27.6963 89.1094 27.3265C89.0208 26.9515 88.8828 26.6234 88.6953 26.3422C88.513 26.0557 88.2786 25.8317 87.9922 25.6703C87.7057 25.5036 87.3646 25.4203 86.9688 25.4203C86.6042 25.4203 86.2865 25.4828 86.0156 25.6078C85.75 25.7328 85.5234 25.9021 85.3359 26.1156C85.1484 26.3239 84.9948 26.5635 84.875 26.8344C84.7604 27.1 84.6745 27.376 84.6172 27.6625V29.6859C84.7214 30.0505 84.8672 30.3942 85.0547 30.7172C85.2422 31.0349 85.4922 31.2927 85.8047 31.4906C86.1172 31.6833 86.5104 31.7797 86.9844 31.7797C87.375 31.7797 87.7109 31.6989 87.9922 31.5375C88.2786 31.3708 88.513 31.1442 88.6953 30.8578C88.8828 30.5713 89.0208 30.2432 89.1094 29.8734C89.1979 29.4984 89.2422 29.1 89.2422 28.6781ZM98.2734 28.0219V29.1937H93.8047V28.0219H98.2734ZM94.1094 24.3578V32.8109H92.6641V24.3578H94.1094ZM99.4453 24.3578V32.8109H97.9922V24.3578H99.4453ZM102.961 27.264H105.5C106.182 27.264 106.758 27.3838 107.227 27.6234C107.695 27.8578 108.049 28.1833 108.289 28.6C108.534 29.0114 108.656 29.4802 108.656 30.0062C108.656 30.3969 108.589 30.764 108.453 31.1078C108.318 31.4463 108.115 31.7432 107.844 31.9984C107.578 32.2536 107.247 32.4541 106.852 32.6C106.461 32.7406 106.01 32.8109 105.5 32.8109H101.906V24.3578H103.352V31.6234H105.5C105.917 31.6234 106.25 31.5479 106.5 31.3969C106.75 31.2458 106.93 31.0505 107.039 30.8109C107.148 30.5713 107.203 30.3213 107.203 30.0609C107.203 29.8057 107.148 29.5557 107.039 29.3109C106.93 29.0661 106.75 28.863 106.5 28.7015C106.25 28.5349 105.917 28.4515 105.5 28.4515H102.961V27.264ZM111.664 24.3578V32.8109H110.219V24.3578H111.664ZM115.758 30.5219L119.656 24.3578H121.109V32.8109H119.656V26.6469L115.758 32.8109H114.32V24.3578H115.758V30.5219ZM118.867 21.2953H120.039C120.039 21.7015 119.945 22.0635 119.758 22.3812C119.57 22.6937 119.302 22.9385 118.953 23.1156C118.604 23.2927 118.19 23.3812 117.711 23.3812C116.987 23.3812 116.414 23.1885 115.992 22.8031C115.576 22.4125 115.367 21.9099 115.367 21.2953H116.539C116.539 21.6026 116.628 21.8734 116.805 22.1078C116.982 22.3422 117.284 22.4594 117.711 22.4594C118.128 22.4594 118.424 22.3422 118.602 22.1078C118.779 21.8734 118.867 21.6026 118.867 21.2953ZM132.82 20.6781H134.008C134.008 21.1885 133.93 21.5948 133.773 21.8969C133.617 22.1937 133.404 22.4229 133.133 22.5844C132.867 22.7458 132.565 22.8682 132.227 22.9515C131.893 23.0349 131.547 23.1156 131.188 23.1937C130.74 23.2875 130.323 23.4359 129.938 23.639C129.557 23.837 129.229 24.1182 128.953 24.4828C128.682 24.8474 128.482 25.3213 128.352 25.9047C128.227 26.488 128.193 27.2094 128.25 28.0687V28.7875H127.062V28.0687C127.062 27.1052 127.154 26.264 127.336 25.5453C127.523 24.8265 127.786 24.2198 128.125 23.725C128.464 23.2302 128.865 22.837 129.328 22.5453C129.797 22.2536 130.312 22.0531 130.875 21.9437C131.281 21.8656 131.63 21.7823 131.922 21.6937C132.214 21.6 132.435 21.475 132.586 21.3187C132.742 21.1625 132.82 20.9489 132.82 20.6781ZM131.109 24.8422C131.661 24.8422 132.154 24.9385 132.586 25.1312C133.018 25.3239 133.385 25.5922 133.688 25.9359C133.99 26.2797 134.219 26.6859 134.375 27.1547C134.536 27.6182 134.617 28.1234 134.617 28.6703V28.8422C134.617 29.4307 134.531 29.9776 134.359 30.4828C134.193 30.9828 133.945 31.4203 133.617 31.7953C133.294 32.1651 132.898 32.4541 132.43 32.6625C131.966 32.8708 131.438 32.975 130.844 32.975C130.25 32.975 129.719 32.8708 129.25 32.6625C128.786 32.4541 128.391 32.1651 128.062 31.7953C127.734 31.4203 127.484 30.9828 127.312 30.4828C127.146 29.9776 127.062 29.4307 127.062 28.8422V28.6703C127.062 28.5401 127.086 28.4125 127.133 28.2875C127.18 28.1625 127.237 28.0349 127.305 27.9047C127.378 27.7745 127.443 27.6364 127.5 27.4906C127.693 27.0219 127.956 26.587 128.289 26.1859C128.628 25.7849 129.031 25.462 129.5 25.2172C129.974 24.9672 130.51 24.8422 131.109 24.8422ZM130.828 26.0219C130.297 26.0219 129.859 26.1442 129.516 26.389C129.177 26.6338 128.924 26.9594 128.758 27.3656C128.591 27.7666 128.508 28.2015 128.508 28.6703V28.8422C128.508 29.238 128.555 29.613 128.648 29.9672C128.742 30.3213 128.883 30.6364 129.07 30.9125C129.263 31.1833 129.505 31.3969 129.797 31.5531C130.094 31.7094 130.443 31.7875 130.844 31.7875C131.245 31.7875 131.591 31.7094 131.883 31.5531C132.174 31.3969 132.414 31.1833 132.602 30.9125C132.789 30.6364 132.93 30.3213 133.023 29.9672C133.117 29.613 133.164 29.238 133.164 28.8422V28.6703C133.164 28.3161 133.117 27.9802 133.023 27.6625C132.93 27.3448 132.786 27.0635 132.594 26.8187C132.406 26.5739 132.164 26.3812 131.867 26.2406C131.576 26.0948 131.229 26.0219 130.828 26.0219ZM141.242 31.3656V27.014C141.242 26.6807 141.174 26.3916 141.039 26.1469C140.909 25.8969 140.711 25.7041 140.445 25.5687C140.18 25.4333 139.852 25.3656 139.461 25.3656C139.096 25.3656 138.776 25.4281 138.5 25.5531C138.229 25.6781 138.016 25.8422 137.859 26.0453C137.708 26.2484 137.633 26.4672 137.633 26.7015H136.188C136.188 26.3995 136.266 26.1 136.422 25.8031C136.578 25.5062 136.802 25.238 137.094 24.9984C137.391 24.7536 137.745 24.5609 138.156 24.4203C138.573 24.2745 139.036 24.2015 139.547 24.2015C140.161 24.2015 140.703 24.3057 141.172 24.514C141.646 24.7224 142.016 25.0375 142.281 25.4594C142.552 25.876 142.688 26.3995 142.688 27.0297V30.9672C142.688 31.2484 142.711 31.5479 142.758 31.8656C142.81 32.1833 142.885 32.4567 142.984 32.6859V32.8109H141.477C141.404 32.6442 141.346 32.4229 141.305 32.1469C141.263 31.8656 141.242 31.6052 141.242 31.3656ZM141.492 27.6859L141.508 28.7015H140.047C139.635 28.7015 139.268 28.7354 138.945 28.8031C138.622 28.8656 138.352 28.962 138.133 29.0922C137.914 29.2224 137.747 29.3864 137.633 29.5844C137.518 29.7771 137.461 30.0036 137.461 30.264C137.461 30.5297 137.521 30.7719 137.641 30.9906C137.76 31.2094 137.94 31.3838 138.18 31.514C138.424 31.639 138.724 31.7015 139.078 31.7015C139.521 31.7015 139.911 31.6078 140.25 31.4203C140.589 31.2328 140.857 31.0036 141.055 30.7328C141.258 30.462 141.367 30.1989 141.383 29.9437L142 30.639C141.964 30.8578 141.865 31.1 141.703 31.3656C141.542 31.6312 141.326 31.8864 141.055 32.1312C140.789 32.3708 140.471 32.5713 140.102 32.7328C139.737 32.889 139.326 32.9672 138.867 32.9672C138.294 32.9672 137.792 32.8552 137.359 32.6312C136.932 32.4073 136.599 32.1078 136.359 31.7328C136.125 31.3526 136.008 30.9281 136.008 30.4594C136.008 30.0062 136.096 29.6078 136.273 29.264C136.451 28.9151 136.706 28.626 137.039 28.3969C137.372 28.1625 137.773 27.9854 138.242 27.8656C138.711 27.7458 139.234 27.6859 139.812 27.6859H141.492ZM150.609 24.3578V25.5531H146.523V24.3578H150.609ZM151.883 24.3578V32.8109H150.438V24.3578H151.883ZM146.172 24.3578H147.625L147.406 28.4359C147.37 29.0661 147.31 29.6234 147.227 30.1078C147.148 30.587 147.039 30.9984 146.898 31.3422C146.763 31.6859 146.591 31.9672 146.383 32.1859C146.18 32.3995 145.935 32.5583 145.648 32.6625C145.362 32.7614 145.031 32.8109 144.656 32.8109H144.203V31.5375L144.516 31.514C144.74 31.4984 144.93 31.4463 145.086 31.3578C145.247 31.2692 145.383 31.139 145.492 30.9672C145.602 30.7901 145.69 30.5635 145.758 30.2875C145.831 30.0114 145.885 29.6833 145.922 29.3031C145.964 28.9229 145.995 28.4802 146.016 27.975L146.172 24.3578ZM159.195 31.3656V27.014C159.195 26.6807 159.128 26.3916 158.992 26.1469C158.862 25.8969 158.664 25.7041 158.398 25.5687C158.133 25.4333 157.805 25.3656 157.414 25.3656C157.049 25.3656 156.729 25.4281 156.453 25.5531C156.182 25.6781 155.969 25.8422 155.812 26.0453C155.661 26.2484 155.586 26.4672 155.586 26.7015H154.141C154.141 26.3995 154.219 26.1 154.375 25.8031C154.531 25.5062 154.755 25.238 155.047 24.9984C155.344 24.7536 155.698 24.5609 156.109 24.4203C156.526 24.2745 156.99 24.2015 157.5 24.2015C158.115 24.2015 158.656 24.3057 159.125 24.514C159.599 24.7224 159.969 25.0375 160.234 25.4594C160.505 25.876 160.641 26.3995 160.641 27.0297V30.9672C160.641 31.2484 160.664 31.5479 160.711 31.8656C160.763 32.1833 160.839 32.4567 160.938 32.6859V32.8109H159.43C159.357 32.6442 159.299 32.4229 159.258 32.1469C159.216 31.8656 159.195 31.6052 159.195 31.3656ZM159.445 27.6859L159.461 28.7015H158C157.589 28.7015 157.221 28.7354 156.898 28.8031C156.576 28.8656 156.305 28.962 156.086 29.0922C155.867 29.2224 155.701 29.3864 155.586 29.5844C155.471 29.7771 155.414 30.0036 155.414 30.264C155.414 30.5297 155.474 30.7719 155.594 30.9906C155.714 31.2094 155.893 31.3838 156.133 31.514C156.378 31.639 156.677 31.7015 157.031 31.7015C157.474 31.7015 157.865 31.6078 158.203 31.4203C158.542 31.2328 158.81 31.0036 159.008 30.7328C159.211 30.462 159.32 30.1989 159.336 29.9437L159.953 30.639C159.917 30.8578 159.818 31.1 159.656 31.3656C159.495 31.6312 159.279 31.8864 159.008 32.1312C158.742 32.3708 158.424 32.5713 158.055 32.7328C157.69 32.889 157.279 32.9672 156.82 32.9672C156.247 32.9672 155.745 32.8552 155.312 32.6312C154.885 32.4073 154.552 32.1078 154.312 31.7328C154.078 31.3526 153.961 30.9281 153.961 30.4594C153.961 30.0062 154.049 29.6078 154.227 29.264C154.404 28.9151 154.659 28.626 154.992 28.3969C155.326 28.1625 155.727 27.9854 156.195 27.8656C156.664 27.7458 157.188 27.6859 157.766 27.6859H159.445ZM168.648 28.0219V29.1937H164.18V28.0219H168.648ZM164.484 24.3578V32.8109H163.039V24.3578H164.484ZM169.82 24.3578V32.8109H168.367V24.3578H169.82ZM175.531 31.7797C175.875 31.7797 176.193 31.7094 176.484 31.5687C176.776 31.4281 177.016 31.2354 177.203 30.9906C177.391 30.7406 177.497 30.4567 177.523 30.139H178.898C178.872 30.639 178.703 31.1052 178.391 31.5375C178.083 31.9646 177.68 32.3109 177.18 32.5765C176.68 32.837 176.13 32.9672 175.531 32.9672C174.896 32.9672 174.341 32.8552 173.867 32.6312C173.398 32.4073 173.008 32.1 172.695 31.7094C172.388 31.3187 172.156 30.8708 172 30.3656C171.849 29.8552 171.773 29.3161 171.773 28.7484V28.4203C171.773 27.8526 171.849 27.3161 172 26.8109C172.156 26.3005 172.388 25.85 172.695 25.4594C173.008 25.0687 173.398 24.7614 173.867 24.5375C174.341 24.3135 174.896 24.2015 175.531 24.2015C176.193 24.2015 176.771 24.337 177.266 24.6078C177.76 24.8734 178.148 25.238 178.43 25.7015C178.716 26.1599 178.872 26.6807 178.898 27.264H177.523C177.497 26.9151 177.398 26.6 177.227 26.3187C177.06 26.0375 176.831 25.8135 176.539 25.6469C176.253 25.475 175.917 25.389 175.531 25.389C175.089 25.389 174.716 25.4776 174.414 25.6547C174.117 25.8265 173.88 26.0609 173.703 26.3578C173.531 26.6495 173.406 26.975 173.328 27.3344C173.255 27.6885 173.219 28.0505 173.219 28.4203V28.7484C173.219 29.1182 173.255 29.4828 173.328 29.8422C173.401 30.2015 173.523 30.5271 173.695 30.8187C173.872 31.1104 174.109 31.3448 174.406 31.5219C174.708 31.6937 175.083 31.7797 175.531 31.7797Z" fill="#828282"/>
<path d="M37.4824 85.1134V95.087H35.5137V87.3829L33.1484 88.1349V86.5831L37.2705 85.1134H37.4824ZM42.5752 90.5548L41.0029 90.1788L41.5703 85.1339H47.1621V86.7267H43.1904L42.9443 88.9347C43.0765 88.8572 43.277 88.7752 43.5459 88.6886C43.8148 88.5974 44.1156 88.5518 44.4482 88.5518C44.9313 88.5518 45.3597 88.627 45.7334 88.7774C46.1071 88.9278 46.4238 89.1466 46.6836 89.4337C46.9479 89.7208 47.1484 90.0717 47.2852 90.4864C47.4219 90.9011 47.4902 91.3705 47.4902 91.8946C47.4902 92.3367 47.4219 92.7582 47.2852 93.1593C47.1484 93.5558 46.9411 93.9112 46.6631 94.2257C46.3851 94.5356 46.0365 94.7794 45.6172 94.9571C45.1979 95.1349 44.7012 95.2237 44.127 95.2237C43.6986 95.2237 43.2839 95.1599 42.8828 95.0323C42.4863 94.9047 42.1286 94.7156 41.8096 94.4649C41.4951 94.2143 41.2422 93.9112 41.0508 93.5558C40.8639 93.1957 40.766 92.7856 40.7568 92.3253H42.7119C42.7393 92.6078 42.8122 92.8517 42.9307 93.0567C43.0537 93.2573 43.2155 93.4122 43.416 93.5216C43.6165 93.631 43.8512 93.6856 44.1201 93.6856C44.3708 93.6856 44.585 93.6378 44.7627 93.5421C44.9404 93.4464 45.084 93.3142 45.1934 93.1456C45.3027 92.9724 45.3825 92.7719 45.4326 92.544C45.4873 92.3116 45.5146 92.061 45.5146 91.7921C45.5146 91.5232 45.4827 91.2794 45.4189 91.0606C45.3551 90.8419 45.2572 90.6528 45.125 90.4933C44.9928 90.3338 44.8242 90.2107 44.6191 90.1241C44.4186 90.0375 44.1839 89.9942 43.915 89.9942C43.5505 89.9942 43.2679 90.0512 43.0674 90.1651C42.8714 90.2791 42.7074 90.4089 42.5752 90.5548ZM57.3271 85.0313H57.6143V86.6036H57.498C56.9785 86.6036 56.516 86.6811 56.1104 86.836C55.7048 86.991 55.3607 87.212 55.0781 87.4991C54.8001 87.7817 54.5859 88.1235 54.4355 88.5245C54.2897 88.9255 54.2168 89.3744 54.2168 89.8712V91.5255C54.2168 91.881 54.251 92.1954 54.3193 92.4688C54.3923 92.7377 54.4948 92.9633 54.627 93.1456C54.7637 93.3233 54.9232 93.4578 55.1055 93.5489C55.2878 93.6355 55.4928 93.6788 55.7207 93.6788C55.9349 93.6788 56.1286 93.6332 56.3018 93.5421C56.4795 93.4509 56.6299 93.3233 56.7529 93.1593C56.8805 92.9907 56.9762 92.7947 57.04 92.5714C57.1084 92.3435 57.1426 92.0951 57.1426 91.8263C57.1426 91.5574 57.1084 91.309 57.04 91.0811C56.9762 90.8533 56.8805 90.6573 56.7529 90.4933C56.6253 90.3246 56.4704 90.1948 56.2881 90.1036C56.1058 90.0125 55.9007 89.9669 55.6729 89.9669C55.363 89.9669 55.0895 90.0398 54.8525 90.1856C54.6201 90.3269 54.4378 90.5092 54.3057 90.7325C54.1735 90.9558 54.1029 91.1905 54.0938 91.4366L53.499 91.0538C53.5127 90.7029 53.5856 90.3702 53.7178 90.0558C53.8545 89.7413 54.0413 89.4633 54.2783 89.2218C54.5199 88.9757 54.8092 88.7843 55.1465 88.6476C55.4837 88.5063 55.8643 88.4356 56.2881 88.4356C56.7529 88.4356 57.1608 88.5245 57.5117 88.7022C57.8672 88.88 58.1634 89.1238 58.4004 89.4337C58.6374 89.7436 58.8151 90.1013 58.9336 90.5069C59.0521 90.9125 59.1113 91.3455 59.1113 91.8058C59.1113 92.2888 59.0316 92.7377 58.8721 93.1524C58.7171 93.5671 58.4915 93.9295 58.1953 94.2393C57.9036 94.5492 57.5527 94.7908 57.1426 94.964C56.7324 95.1371 56.2721 95.2237 55.7617 95.2237C55.2331 95.2237 54.7523 95.128 54.3193 94.9366C53.891 94.7407 53.5218 94.4672 53.2119 94.1163C52.902 93.7654 52.6628 93.3484 52.4941 92.8653C52.3301 92.3823 52.248 91.8536 52.248 91.2794V90.5138C52.248 89.7117 52.3643 88.978 52.5967 88.3126C52.8337 87.6427 53.1732 87.0639 53.6152 86.5763C54.0573 86.0841 54.5905 85.7035 55.2148 85.4347C55.8392 85.1658 56.5433 85.0313 57.3271 85.0313ZM67.0479 85.1339V86.1935L63.1992 95.087H61.1211L64.9697 86.672H60.0137V85.1339H67.0479ZM75.0322 92.3595C75.0322 92.9838 74.8864 93.5102 74.5947 93.9386C74.3031 94.3624 73.902 94.6837 73.3916 94.9024C72.8857 95.1166 72.3115 95.2237 71.6689 95.2237C71.0264 95.2237 70.4499 95.1166 69.9395 94.9024C69.429 94.6837 69.0257 94.3624 68.7295 93.9386C68.4333 93.5102 68.2852 92.9838 68.2852 92.3595C68.2852 91.9402 68.3695 91.5619 68.5381 91.2247C68.7067 90.8829 68.9414 90.5912 69.2422 90.3497C69.5475 90.1036 69.9053 89.9168 70.3154 89.7892C70.7256 89.657 71.1722 89.5909 71.6553 89.5909C72.3024 89.5909 72.8812 89.7048 73.3916 89.9327C73.902 90.1606 74.3031 90.4819 74.5947 90.8966C74.8864 91.3113 75.0322 91.7989 75.0322 92.3595ZM73.0498 92.2296C73.0498 91.9242 72.9906 91.6622 72.8721 91.4435C72.7581 91.2201 72.5964 91.0492 72.3867 90.9308C72.1771 90.8123 71.9333 90.753 71.6553 90.753C71.3773 90.753 71.1335 90.8123 70.9238 90.9308C70.7142 91.0492 70.5501 91.2201 70.4316 91.4435C70.3177 91.6622 70.2607 91.9242 70.2607 92.2296C70.2607 92.5304 70.3177 92.7901 70.4316 93.0089C70.5501 93.2276 70.7142 93.3963 70.9238 93.5147C71.138 93.6287 71.3864 93.6856 71.6689 93.6856C71.9515 93.6856 72.1953 93.6287 72.4004 93.5147C72.61 93.3963 72.7695 93.2276 72.8789 93.0089C72.9928 92.7901 73.0498 92.5304 73.0498 92.2296ZM74.8203 87.7726C74.8203 88.2784 74.6859 88.7273 74.417 89.1192C74.1481 89.5066 73.7744 89.8097 73.2959 90.0284C72.8219 90.2472 72.2796 90.3565 71.6689 90.3565C71.0537 90.3565 70.5068 90.2472 70.0283 90.0284C69.5498 89.8097 69.1761 89.5066 68.9072 89.1192C68.6383 88.7273 68.5039 88.2784 68.5039 87.7726C68.5039 87.171 68.6383 86.6651 68.9072 86.255C69.1807 85.8403 69.5544 85.5258 70.0283 85.3116C70.5068 85.0974 71.0492 84.9903 71.6553 84.9903C72.2705 84.9903 72.8151 85.0974 73.2891 85.3116C73.7676 85.5258 74.1413 85.8403 74.4102 86.255C74.6836 86.6651 74.8203 87.171 74.8203 87.7726ZM72.8516 87.8614C72.8516 87.5925 72.8037 87.3601 72.708 87.1642C72.6123 86.9636 72.4756 86.8087 72.2979 86.6993C72.1247 86.5899 71.9105 86.5352 71.6553 86.5352C71.4092 86.5352 71.1973 86.5877 71.0195 86.6925C70.8464 86.7973 70.7119 86.95 70.6162 87.1505C70.5251 87.3464 70.4795 87.5834 70.4795 87.8614C70.4795 88.1303 70.5251 88.3673 70.6162 88.5724C70.7119 88.7729 70.8486 88.9301 71.0264 89.044C71.2041 89.158 71.4183 89.2149 71.6689 89.2149C71.9196 89.2149 72.1315 89.158 72.3047 89.044C72.4824 88.9301 72.6169 88.7729 72.708 88.5724C72.8037 88.3673 72.8516 88.1303 72.8516 87.8614ZM85.5527 85.1339H87.5967V91.7101C87.5967 92.4757 87.4326 93.1205 87.1045 93.6446C86.7809 94.1687 86.332 94.5629 85.7578 94.8272C85.1882 95.0916 84.5319 95.2237 83.7891 95.2237C83.0462 95.2237 82.3854 95.0916 81.8066 94.8272C81.2324 94.5629 80.7812 94.1687 80.4531 93.6446C80.1296 93.1205 79.9678 92.4757 79.9678 91.7101V85.1339H82.0186V91.7101C82.0186 92.1567 82.0892 92.5213 82.2305 92.8038C82.3717 93.0864 82.5745 93.2937 82.8389 93.4259C83.1077 93.558 83.4245 93.6241 83.7891 93.6241C84.1628 93.6241 84.4795 93.558 84.7393 93.4259C85.0036 93.2937 85.2041 93.0864 85.3408 92.8038C85.4821 92.5213 85.5527 92.1567 85.5527 91.7101V85.1339ZM94.4668 92.4825C94.4668 92.3048 94.4395 92.1453 94.3848 92.004C94.3346 91.8582 94.2389 91.726 94.0977 91.6075C93.9564 91.4845 93.7581 91.3637 93.5029 91.2452C93.2477 91.1267 92.9173 91.0037 92.5117 90.8761C92.0605 90.7302 91.6322 90.5662 91.2266 90.3839C90.8255 90.2016 90.4701 89.9897 90.1602 89.7481C89.8548 89.502 89.6133 89.2172 89.4355 88.8936C89.2624 88.5701 89.1758 88.1941 89.1758 87.7657C89.1758 87.351 89.2669 86.975 89.4492 86.6378C89.6315 86.296 89.8867 86.0043 90.2148 85.7628C90.543 85.5167 90.9303 85.3276 91.377 85.1954C91.8281 85.0632 92.3226 84.9972 92.8604 84.9972C93.5941 84.9972 94.2344 85.1293 94.7812 85.3936C95.3281 85.658 95.752 86.0203 96.0527 86.4806C96.3581 86.9408 96.5107 87.4672 96.5107 88.0597H94.4736C94.4736 87.768 94.4121 87.5128 94.2891 87.294C94.1706 87.0707 93.9883 86.8953 93.7422 86.7677C93.5007 86.6401 93.1953 86.5763 92.8262 86.5763C92.4707 86.5763 92.1745 86.631 91.9375 86.7403C91.7005 86.8451 91.5228 86.9887 91.4043 87.171C91.2858 87.3487 91.2266 87.5492 91.2266 87.7726C91.2266 87.9412 91.2676 88.0938 91.3496 88.2306C91.4362 88.3673 91.5638 88.4949 91.7324 88.6134C91.901 88.7319 92.1084 88.8435 92.3545 88.9483C92.6006 89.0532 92.8854 89.1557 93.209 89.256C93.7513 89.42 94.2275 89.6046 94.6377 89.8097C95.0524 90.0147 95.3988 90.2449 95.6768 90.5001C95.9548 90.7553 96.1644 91.0447 96.3057 91.3683C96.4469 91.6918 96.5176 92.0587 96.5176 92.4688C96.5176 92.9018 96.4333 93.2892 96.2646 93.631C96.096 93.9727 95.8522 94.2621 95.5332 94.4991C95.2142 94.7361 94.8337 94.9161 94.3916 95.0392C93.9495 95.1622 93.4551 95.2237 92.9082 95.2237C92.416 95.2237 91.9307 95.1599 91.4521 95.0323C90.9736 94.9002 90.5384 94.7019 90.1465 94.4376C89.7591 94.1733 89.4492 93.836 89.2168 93.4259C88.9844 93.0157 88.8682 92.5304 88.8682 91.9698H90.9258C90.9258 92.2797 90.9736 92.5418 91.0693 92.756C91.165 92.9701 91.2995 93.1433 91.4727 93.2755C91.6504 93.4076 91.86 93.5033 92.1016 93.5626C92.3477 93.6218 92.6165 93.6515 92.9082 93.6515C93.2637 93.6515 93.5553 93.6013 93.7832 93.5011C94.0156 93.4008 94.1865 93.2618 94.2959 93.0841C94.4098 92.9063 94.4668 92.7058 94.4668 92.4825ZM100.968 95.087H98.8008L98.8145 93.4874H100.968C101.506 93.4874 101.959 93.3666 102.328 93.1251C102.697 92.879 102.975 92.5213 103.162 92.0518C103.354 91.5824 103.449 91.0151 103.449 90.3497V89.8643C103.449 89.3539 103.395 88.905 103.285 88.5177C103.18 88.1303 103.023 87.8045 102.813 87.5401C102.604 87.2758 102.346 87.0776 102.041 86.9454C101.736 86.8087 101.385 86.7403 100.988 86.7403H98.7598V85.1339H100.988C101.654 85.1339 102.262 85.2478 102.813 85.4757C103.369 85.699 103.85 86.0203 104.256 86.4395C104.661 86.8588 104.974 87.3601 105.192 87.9435C105.416 88.5222 105.527 89.1671 105.527 89.878V90.3497C105.527 91.0561 105.416 91.7009 105.192 92.2843C104.974 92.8676 104.661 93.3689 104.256 93.7882C103.855 94.2029 103.374 94.5242 102.813 94.752C102.257 94.9754 101.642 95.087 100.968 95.087ZM99.9629 85.1339V95.087H97.9121V85.1339H99.9629Z" fill="#4F4F4F"/>
<ellipse cx="35.0235" cy="60.23" rx="3.23346" ry="3.2508" fill="#2F80ED"/>
<defs>
<filter id="filter0_d_2074_32" x="-3" y="0.746246" width="310" height="133.487" filterUnits="userSpaceOnUse" color-interpolation-filters="sRGB">
<feFlood flood-opacity="0" result="BackgroundImageFix"/>
<feColorMatrix in="SourceAlpha" type="matrix" values="0 0 0 0 0 0 0 0 0 0 0 0 0 0 0 0 0 0 127 0" result="hardAlpha"/>
<feOffset dy="8"/>
<feGaussianBlur stdDeviation="5"/>
<feColorMatrix type="matrix" values="0 0 0 0 0.2346 0 0 0 0 0.330692 0 0 0 0 0.46 0 0 0 0.15 0"/>
<feBlend mode="normal" in2="BackgroundImageFix" result="effect1_dropShadow_2074_32"/>
<feBlend mode="normal" in="SourceGraphic" in2="effect1_dropShadow_2074_32" result="shape"/>
</filter>
</defs>
</svg>
