<svg width="15" height="10" viewBox="0 0 15 10" fill="none" xmlns="http://www.w3.org/2000/svg">
<path d="M10.7061 3.44974C10.703 3.40385 10.7192 3.35861 10.7511 3.32407L12.1932 1.76059C12.2251 1.72605 12.2701 1.70498 12.3183 1.70202C12.3667 1.69907 12.4139 1.71446 12.4502 1.74483C13.1128 2.29991 13.6629 2.95453 14.0851 3.6905C14.1082 3.73088 14.1137 3.77836 14.1001 3.82248C14.0865 3.86662 14.0551 3.90383 14.0127 3.92588L12.0959 4.9243C12.0682 4.93876 12.0383 4.9456 12.0087 4.9456C11.9444 4.9456 11.8819 4.91295 11.8489 4.85531C11.5698 4.36885 11.206 3.93604 10.7676 3.56886C10.7313 3.53854 10.7092 3.49569 10.7061 3.44974Z" fill="#828282"/>
<path d="M10.0626 2.8707C10.0299 2.92944 9.96684 2.96291 9.90162 2.96291C9.87284 2.96291 9.84365 2.9564 9.81649 2.94266C9.30272 2.68302 8.75003 2.51359 8.17373 2.43909C8.07412 2.42622 8.00429 2.33882 8.0178 2.24388L8.3114 0.18117C8.3249 0.0862508 8.41689 0.0198031 8.51625 0.0325788C9.39145 0.145692 10.2307 0.402935 11.0107 0.79716C11.0995 0.84205 11.1333 0.947012 11.0862 1.03168L10.0626 2.8707Z" fill="#828282"/>
<path d="M12.4072 5.66195L14.5155 5.11687C14.5621 5.10487 14.6118 5.11092 14.6537 5.13381C14.6956 5.15669 14.7262 5.19448 14.7388 5.23888C14.9121 5.84763 15 6.47857 15 7.11418C15 7.22295 14.9973 7.33207 14.9916 7.4478C14.9871 7.54078 14.9066 7.61323 14.8099 7.61323C14.8071 7.61323 14.8042 7.61318 14.8013 7.61304L12.6192 7.51698C12.571 7.51488 12.5256 7.49456 12.4931 7.46058C12.4606 7.42659 12.4435 7.38163 12.4458 7.33569C12.4496 7.25766 12.4514 7.18518 12.4514 7.11418C12.4514 6.69331 12.3935 6.27633 12.2792 5.87477C12.2529 5.78233 12.3102 5.68706 12.4072 5.66195Z" fill="#828282"/>
<path d="M4.24678 0.673187C5.04116 0.308249 5.88991 0.0820933 6.76944 0.000861204C6.81777 -0.00376328 6.86547 0.0103904 6.90275 0.0396087C6.94003 0.0688504 6.96356 0.110985 6.96821 0.156809L7.17882 2.22877C7.18853 2.3241 7.11525 2.40891 7.01517 2.41814C6.43547 2.47164 5.87638 2.62061 5.35341 2.86082C5.32854 2.87227 5.3015 2.87806 5.27437 2.87806C5.25413 2.87806 5.23383 2.87481 5.21432 2.86835C5.16876 2.85319 5.13136 2.82135 5.1104 2.77992L4.16187 0.904738C4.11817 0.818461 4.15619 0.71476 4.24678 0.673187Z" fill="#828282"/>
<path d="M1.03835 3.58305C1.02658 3.53842 1.03384 3.49122 1.05864 3.4517C1.51041 2.73152 2.08641 2.09745 2.7706 1.5672C2.80807 1.53819 2.85589 1.5246 2.9041 1.5292C2.95212 1.53394 2.99621 1.55662 3.02665 1.59231L4.40501 3.20723C4.43545 3.24294 4.44981 3.2887 4.44483 3.33445C4.43991 3.38021 4.41608 3.42222 4.37861 3.45128C3.92591 3.80206 3.54491 4.22144 3.24614 4.69776C3.21202 4.75209 3.15165 4.78227 3.08969 4.78227C3.0579 4.78227 3.02572 4.77433 2.99648 4.75765L1.12146 3.68963C1.08007 3.66601 1.05016 3.62769 1.03835 3.58305Z" fill="#828282"/>
<path d="M0.341925 4.97519C0.372023 4.88376 0.474204 4.83282 0.570061 4.86152L2.65457 5.48391C2.75052 5.51255 2.8039 5.60987 2.77385 5.70126C2.62425 6.15638 2.54839 6.63174 2.54839 7.11416C2.54839 7.18518 2.55025 7.25766 2.55403 7.33567C2.55628 7.38161 2.53927 7.42657 2.50672 7.46055C2.4742 7.49456 2.42883 7.51485 2.38062 7.51695L0.198495 7.61302C0.195603 7.61314 0.19276 7.6132 0.189917 7.6132C0.0932505 7.6132 0.0127606 7.54073 0.00820184 7.44777C0.00258899 7.33205 -0.000181437 7.22293 -0.000181437 7.11416C-0.000132561 6.38512 0.114916 5.66548 0.341925 4.97519Z" fill="#828282"/>
<path d="M7.50634 6.74589C7.53774 6.74589 7.56896 6.74687 7.60006 6.74846L10.5572 5.08586C10.6295 5.0451 10.7214 5.05531 10.7821 5.11073C10.8427 5.16611 10.8573 5.25318 10.8177 5.32376L9.20464 8.20484C9.21057 8.26034 9.21374 8.31637 9.21374 8.37289C9.21374 8.8075 9.03614 9.21606 8.71366 9.52336C8.39116 9.83067 7.96239 9.99991 7.50631 9.99991C7.05024 9.99991 6.62149 9.83063 6.29901 9.52336C5.97652 9.21606 5.79894 8.8075 5.79894 8.37289C5.79894 7.93828 5.97654 7.52971 6.29901 7.22242C6.62149 6.91512 7.05029 6.74589 7.50634 6.74589Z" fill="#828282"/>
</svg>
