<svg width="21" height="22" viewBox="0 0 21 22" fill="none" xmlns="http://www.w3.org/2000/svg">
<path d="M11.4609 14.592H10.0078C10.013 14.092 10.0573 13.6831 10.1406 13.3654C10.2292 13.0425 10.3724 12.7482 10.5703 12.4826C10.7682 12.217 11.0312 11.9149 11.3594 11.5764C11.599 11.3316 11.8177 11.1024 12.0156 10.8889C12.2188 10.6701 12.3828 10.4357 12.5078 10.1857C12.6328 9.93052 12.6953 9.62583 12.6953 9.27167C12.6953 8.91229 12.6302 8.6024 12.5 8.34198C12.375 8.08156 12.1875 7.88104 11.9375 7.74042C11.6927 7.59979 11.388 7.52948 11.0234 7.52948C10.7214 7.52948 10.4349 7.58417 10.1641 7.69354C9.89323 7.80292 9.67448 7.97219 9.50781 8.20135C9.34115 8.42531 9.25521 8.71958 9.25 9.08417H7.80469C7.8151 8.49563 7.96094 7.99042 8.24219 7.56854C8.52865 7.14667 8.91406 6.82375 9.39844 6.59979C9.88281 6.37583 10.4245 6.26385 11.0234 6.26385C11.6849 6.26385 12.2474 6.38365 12.7109 6.62323C13.1797 6.86281 13.5365 7.20656 13.7812 7.65448C14.026 8.09719 14.1484 8.62323 14.1484 9.2326C14.1484 9.70135 14.0521 10.1336 13.8594 10.5295C13.6719 10.9201 13.4297 11.2873 13.1328 11.631C12.8359 11.9748 12.5208 12.3029 12.1875 12.6154C11.901 12.881 11.7083 13.1805 11.6094 13.5139C11.5104 13.8472 11.4609 14.2066 11.4609 14.592ZM9.94531 17.0685C9.94531 16.8342 10.0182 16.6363 10.1641 16.4748C10.3099 16.3133 10.5208 16.2326 10.7969 16.2326C11.0781 16.2326 11.2917 16.3133 11.4375 16.4748C11.5833 16.6363 11.6562 16.8342 11.6562 17.0685C11.6562 17.2925 11.5833 17.4852 11.4375 17.6467C11.2917 17.8081 11.0781 17.8889 10.7969 17.8889C10.5208 17.8889 10.3099 17.8081 10.1641 17.6467C10.0182 17.4852 9.94531 17.2925 9.94531 17.0685Z" fill="#EB5757"/>
<path d="M20.5 11.3317C20.5 16.8816 16.0208 21.377 10.5 21.377C4.97918 21.377 0.5 16.8816 0.5 11.3317C0.5 5.78184 4.97918 1.28644 10.5 1.28644C16.0208 1.28644 20.5 5.78184 20.5 11.3317Z" stroke="#EB5757"/>
</svg>
